<?xml version="1.0" encoding="utf-8"?>
<!-- Generator: Adobe Illustrator 16.0.4, SVG Export Plug-In . SVG Version: 6.00 Build 0)  -->
<!DOCTYPE svg PUBLIC "-//W3C//DTD SVG 1.0//EN" "http://www.w3.org/TR/2001/REC-SVG-20010904/DTD/svg10.dtd">
<svg version="1.0" id="Layer_1" xmlns="http://www.w3.org/2000/svg" xmlns:xlink="http://www.w3.org/1999/xlink" x="0px" y="0px"
	 width="561.84px" height="864.72px" viewBox="0 0 561.84 864.72" enable-background="new 0 0 561.84 864.72" xml:space="preserve">
<g>
	<g>
		<defs>
			<rect id="SVGID_1_" x="0" width="561.84" height="864.72"/>
		</defs>
		<clipPath id="SVGID_2_">
			<use xlink:href="#SVGID_1_"  overflow="visible"/>
		</clipPath>
		<path clip-path="url(#SVGID_2_)" d="M252.31,861.906c-15.039-4.524-26.563-14.388-33.528-28.695
			c-5.148-10.575-5.672-14.86-5.672-46.579V759h135.2v28.949c0,32.762-0.246,34.719-5.832,46.25
			c-4.664,9.625-14.152,19.147-23.766,23.854c-11.043,5.407-13.363,5.75-38.371,5.703
			C259.849,863.715,257.892,863.586,252.31,861.906L252.31,861.906z M273.329,706.961c-10.82-1.114-23.433-6.028-31.879-12.426
			c-10.523-7.974-37.265-33.164-62.023-58.431C116.958,572.362,65.918,500.949,36.271,435.8
			C16.786,392.984,6.224,355.73,0.997,311.398c-1.332-11.289-1.328-48.516,0.008-59.199C7.056,203.75,21.105,164.82,46.363,126.5
			C84.898,68.047,144,26.027,211.728,8.925c25.851-6.527,47.054-8.757,76.816-8.089c21.344,0.48,33.094,1.793,51.367,5.734
			C450.208,30.375,536.133,118.246,557.02,228.597c3.738,19.754,4.398,27.508,4.445,52.403c0.047,24.367-0.477,31.761-3.621,51.199
			c-15.859,98.09-77.34,203.371-180.727,309.492c-11.641,11.949-36.023,34.981-49.609,46.867
			C311.165,702.854,293.098,708.992,273.329,706.961L273.329,706.961z M298.411,569.953
			c57.098-58.289,96.898-111.388,123.941-165.356c16.688-33.304,26.254-61.941,31.266-93.597c2.098-13.254,2.098-44.844-0.008-57.2
			c-13.254-77.976-74.66-136.625-152.898-146.031c-3.957-0.472-13.16-0.859-20.453-0.855c-46.504,0.023-89.602,17.886-122.77,50.886
			c-14.113,14.04-24.355,28.184-33.093,45.704c-22.93,45.964-24.395,96.121-4.532,155.093
			c20.641,61.289,65.879,130.082,129.942,197.603c11.5,12.12,30.476,30.715,31.402,30.769c0.277,0.016,8.016-7.64,17.199-17.015
			H298.411z"/>
	</g>
</g>
</svg>
