<?xml version="1.0" encoding="utf-8"?>
<!-- Generator: Adobe Illustrator 16.0.4, SVG Export Plug-In . SVG Version: 6.00 Build 0)  -->
<!DOCTYPE svg PUBLIC "-//W3C//DTD SVG 1.0//EN" "http://www.w3.org/TR/2001/REC-SVG-20010904/DTD/svg10.dtd">
<svg version="1.0" id="Layer_1" xmlns="http://www.w3.org/2000/svg" xmlns:xlink="http://www.w3.org/1999/xlink" x="0px" y="0px"
	 width="158.88px" height="202.8px" viewBox="0 0 158.88 202.8" enable-background="new 0 0 158.88 202.8" xml:space="preserve">
<g>
	<g>
		<defs>
			<rect id="SVGID_1_" width="158.88" height="202.8"/>
		</defs>
		<clipPath id="SVGID_2_">
			<use xlink:href="#SVGID_1_"  overflow="visible"/>
		</clipPath>
		<path clip-path="url(#SVGID_2_)" d="M52.477,200.961c-6.336-1.316-11.352-4.035-16.758-9.093
			C16.855,174.223,3.082,121.934,8.422,88.247c3.703-23.344,12.34-35.825,31.098-44.934c12.781-6.207,16.796-7.113,31.617-7.141
			c13.789-0.023,18.637,0.899,27.891,5.317c12.77,6.094,21.711,21.59,21.711,37.633c0,14.191-6.781,23.944-18.254,26.25
			c-11.758,2.362-16.09,3.578-20.371,5.714c-10.289,5.141-15.261,12.566-15.195,22.704c0.043,6.828,1.473,10.367,10.707,26.507
			c3.082,5.395,6.484,11.969,7.559,14.614c4.551,11.194,1.039,20.937-9.141,25.358C72.02,202.016,59.344,202.391,52.477,200.961
			L52.477,200.961z M6.648,54.227c-5.23-3.191-7.992-10.316-6-15.476c0.997-2.579,5.235-5.399,8.09-5.383
			c3.457,0.015,8.133,3.308,10.203,7.183C24.125,50.258,15.633,59.704,6.648,54.227L6.648,54.227z M125.301,49.844
			c-5.062-1.886-9.32-5.172-11.824-9.121c-3.156-4.98-4.164-9.055-3.789-15.355c0.582-9.742,6.227-18.262,15.223-22.981
			c3.648-1.91,5.16-2.215,11.027-2.226c6.047-0.008,7.273,0.25,11.066,2.351c4.664,2.586,7.273,5.289,9.969,10.344
			c2.516,4.719,2.52,16.043,0.008,21.496c-2.5,5.418-9.082,12.07-14.082,14.231C137.719,50.821,129.5,51.411,125.301,49.844
			L125.301,49.844z M27.926,38.266c-4.238-2.254-7.383-7.23-7.809-12.359c-0.324-3.93-0.137-4.547,2.172-7.18
			c6.137-6.988,15.574-5.348,20.086,3.492c3.273,6.414,1.398,13.106-4.473,15.949C33.832,40.137,31.488,40.161,27.926,38.266
			L27.926,38.266z M54.512,30.418c-4.489-2.21-7.375-7.851-7.375-14.414c0-7.562,4.617-13.054,10.968-13.054
			c7.461,0,12.235,5.797,12.231,14.851C70.336,28.348,62.684,34.446,54.512,30.418L54.512,30.418z M83.5,30.668
			c-3.152-1.429-6.477-5.406-7.172-8.574c-1.312-5.965,1.844-14.008,6.824-17.39c2.254-1.536,3.523-1.828,6.645-1.536
			c9.422,0.875,14.227,10.106,10.172,19.536c-2.52,5.855-5.484,8.406-10.191,8.773C87.574,31.649,84.898,31.305,83.5,30.668
			L83.5,30.668z"/>
	</g>
</g>
</svg>
