<?xml version="1.0" encoding="utf-8"?>
<!-- Generator: Adobe Illustrator 16.0.4, SVG Export Plug-In . SVG Version: 6.00 Build 0)  -->
<!DOCTYPE svg PUBLIC "-//W3C//DTD SVG 1.0//EN" "http://www.w3.org/TR/2001/REC-SVG-20010904/DTD/svg10.dtd">
<svg version="1.0" id="AREAS" xmlns="http://www.w3.org/2000/svg" xmlns:xlink="http://www.w3.org/1999/xlink" x="0px" y="0px"
	 width="480px" height="398.88px" viewBox="0 0 480 398.88" enable-background="new 0 0 480 398.88" xml:space="preserve">
<path id="WOMENS_LOCKER_ROOM" fill="#014079" d="M326.815,338.859c-0.146,0.055-0.35,0.081-0.609,0.081h-1.222v-1.421h1.359
	c0.318,0,0.551,0.065,0.698,0.196s0.222,0.298,0.222,0.501c0,0.139-0.038,0.268-0.114,0.385
	C327.073,338.72,326.962,338.806,326.815,338.859z M327.392,330.473c-0.228-0.145-0.482-0.216-0.766-0.216
	c-0.402,0-0.748,0.139-1.039,0.415c-0.289,0.276-0.435,0.737-0.435,1.384c0,0.518,0.14,0.926,0.417,1.224
	c0.279,0.298,0.628,0.446,1.048,0.446c0.428,0,0.779-0.15,1.056-0.451s0.415-0.728,0.415-1.28c0-0.35-0.06-0.654-0.177-0.916
	C327.792,330.819,327.619,330.616,327.392,330.473z M331.393,337.673c-0.228-0.145-0.482-0.216-0.766-0.216
	c-0.402,0-0.748,0.139-1.039,0.415c-0.289,0.276-0.435,0.737-0.435,1.384c0,0.518,0.14,0.926,0.417,1.224
	c0.279,0.298,0.628,0.446,1.048,0.446c0.428,0,0.779-0.15,1.056-0.451s0.415-0.728,0.415-1.28c0-0.35-0.06-0.654-0.177-0.916
	C331.793,338.019,331.62,337.816,331.393,337.673z M336.06,337.673c-0.228-0.145-0.482-0.216-0.766-0.216
	c-0.402,0-0.748,0.139-1.039,0.415c-0.289,0.276-0.435,0.737-0.435,1.384c0,0.518,0.14,0.926,0.417,1.224
	c0.279,0.298,0.628,0.446,1.048,0.446c0.428,0,0.779-0.15,1.056-0.451s0.415-0.728,0.415-1.28c0-0.35-0.06-0.654-0.177-0.916
	C336.46,338.019,336.287,337.816,336.06,337.673z M326.781,326.526c0.428,0,0.779-0.15,1.056-0.451s0.415-0.728,0.415-1.28
	c0-0.35-0.06-0.654-0.177-0.916c-0.119-0.26-0.292-0.463-0.52-0.605c-0.228-0.145-0.482-0.216-0.766-0.216
	c-0.402,0-0.748,0.139-1.039,0.415c-0.289,0.276-0.435,0.737-0.435,1.384c0,0.518,0.14,0.926,0.417,1.224
	C326.013,326.377,326.361,326.526,326.781,326.526z M356.085,311.752v38.799h-45.617v-38.799H356.085z M343.079,323.212
	c-0.006,0.162-0.035,0.29-0.086,0.383c-0.053,0.093-0.131,0.16-0.236,0.203l0.129,0.208c0.178-0.08,0.309-0.199,0.393-0.357
	c0.061-0.115,0.091-0.304,0.091-0.565V322.6h-0.565v0.612H343.079z M338.564,326.939h0.545v-3.375l2.256,3.375h0.583v-4.295h-0.545
	v3.372l-2.256-3.372h-0.583V326.939z M334.58,326.939h3.205v-0.507h-2.637v-1.462h2.376v-0.504h-2.376v-1.315h2.537v-0.507h-3.105
	V326.939z M333.716,334.139h0.568v-1.488l0.703-0.686l1.529,2.174h0.75l-1.881-2.555l1.802-1.74h-0.771l-2.133,2.13v-2.13h-0.568
	V334.139z M324.73,324.847c0,0.377,0.082,0.734,0.246,1.072s0.405,0.604,0.724,0.8s0.68,0.293,1.084,0.293
	c0.373,0,0.721-0.088,1.043-0.265s0.571-0.438,0.747-0.781s0.264-0.733,0.264-1.169c0-0.43-0.083-0.813-0.251-1.153
	c-0.166-0.338-0.409-0.603-0.728-0.792s-0.676-0.284-1.072-0.284c-0.605,0-1.1,0.202-1.482,0.605S324.73,324.134,324.73,324.847z
	 M324.062,333.632h-2.115v-3.788h-0.568v4.295h2.684V333.632z M324.373,322.644h-0.571l-0.674,2.76
	c-0.088,0.352-0.159,0.663-0.214,0.935c-0.068-0.475-0.18-0.981-0.334-1.521l-0.615-2.174h-0.686l-0.817,2.9
	c-0.02,0.07-0.084,0.335-0.193,0.794c-0.051-0.291-0.111-0.584-0.182-0.879l-0.653-2.815h-0.583l1.14,4.295h0.58l0.911-3.272
	c0.039-0.139,0.081-0.307,0.126-0.504c0.014,0.062,0.059,0.23,0.135,0.504l0.905,3.272h0.548L324.373,322.644z M328.201,341.339
	l-0.747-1.169c-0.148-0.229-0.306-0.419-0.472-0.571c-0.078-0.07-0.192-0.142-0.343-0.214c0.412-0.057,0.717-0.189,0.914-0.398
	s0.296-0.466,0.296-0.771c0-0.236-0.06-0.452-0.179-0.647s-0.278-0.331-0.478-0.409c-0.199-0.076-0.49-0.115-0.873-0.115h-1.904
	v4.295h0.568v-1.907h0.659c0.146,0,0.252,0.007,0.316,0.021c0.088,0.021,0.174,0.06,0.26,0.114c0.084,0.055,0.181,0.15,0.288,0.287
	s0.244,0.334,0.41,0.592l0.568,0.894H328.201z M328.41,333.167c0.176-0.344,0.264-0.733,0.264-1.169c0-0.43-0.083-0.813-0.251-1.153
	c-0.166-0.338-0.409-0.603-0.728-0.792s-0.676-0.284-1.072-0.284c-0.605,0-1.1,0.202-1.482,0.605s-0.574,0.961-0.574,1.674
	c0,0.377,0.082,0.734,0.246,1.072s0.405,0.604,0.724,0.8s0.68,0.293,1.084,0.293c0.373,0,0.721-0.088,1.043-0.265
	S328.234,333.51,328.41,333.167z M332.675,339.198c0-0.43-0.083-0.813-0.251-1.153c-0.166-0.338-0.409-0.603-0.728-0.792
	s-0.676-0.284-1.072-0.284c-0.605,0-1.1,0.202-1.482,0.605s-0.574,0.961-0.574,1.674c0,0.377,0.082,0.734,0.246,1.072
	s0.405,0.604,0.724,0.8s0.68,0.293,1.084,0.293c0.373,0,0.721-0.088,1.043-0.265s0.571-0.438,0.747-0.781
	S332.675,339.633,332.675,339.198z M333.039,332.777l-0.568-0.144c-0.078,0.361-0.228,0.634-0.448,0.817s-0.49,0.275-0.809,0.275
	c-0.262,0-0.505-0.067-0.729-0.202s-0.391-0.338-0.496-0.611c-0.107-0.271-0.16-0.591-0.16-0.956c0-0.283,0.045-0.558,0.135-0.825
	c0.09-0.266,0.245-0.479,0.467-0.637s0.498-0.237,0.828-0.237c0.287,0,0.525,0.071,0.715,0.214s0.334,0.37,0.434,0.683l0.56-0.132
	c-0.115-0.396-0.319-0.704-0.612-0.923s-0.654-0.328-1.084-0.328c-0.379,0-0.727,0.087-1.041,0.259
	c-0.316,0.174-0.56,0.427-0.73,0.76s-0.256,0.723-0.256,1.17c0,0.41,0.075,0.794,0.227,1.151s0.373,0.631,0.662,0.819
	c0.291,0.188,0.667,0.282,1.13,0.282c0.447,0,0.825-0.122,1.136-0.368C332.705,333.6,332.92,333.244,333.039,332.777z
	 M333.104,323.344v3.595h0.548v-4.295h-0.765l-1.028,2.988c-0.104,0.303-0.18,0.532-0.229,0.688
	c-0.043-0.141-0.111-0.353-0.205-0.636l-1.017-3.041h-0.855v4.295h0.548v-3.656l1.242,3.656h0.513L333.104,323.344z
	 M337.342,339.198c0-0.43-0.083-0.813-0.251-1.153c-0.166-0.338-0.409-0.603-0.728-0.792s-0.676-0.284-1.072-0.284
	c-0.605,0-1.1,0.202-1.482,0.605s-0.574,0.961-0.574,1.674c0,0.377,0.082,0.734,0.246,1.072s0.405,0.604,0.724,0.8
	s0.68,0.293,1.084,0.293c0.373,0,0.721-0.088,1.043-0.265s0.571-0.438,0.747-0.781S337.342,339.633,337.342,339.198z
	 M337.753,334.139h3.205v-0.507h-2.637v-1.462h2.376v-0.504h-2.376v-1.315h2.537v-0.507h-3.105V334.139z M342.155,337.044h-0.765
	l-1.028,2.988c-0.104,0.303-0.18,0.532-0.229,0.688c-0.043-0.141-0.111-0.353-0.205-0.636l-1.017-3.041h-0.855v4.295h0.548v-3.656
	l1.242,3.656h0.513l1.248-3.595v3.595h0.548V337.044z M345.537,334.139l-0.747-1.169c-0.148-0.229-0.306-0.419-0.472-0.571
	c-0.078-0.07-0.192-0.142-0.343-0.214c0.412-0.057,0.717-0.189,0.914-0.398s0.296-0.466,0.296-0.771c0-0.236-0.06-0.452-0.179-0.647
	s-0.278-0.331-0.478-0.409c-0.199-0.076-0.49-0.115-0.873-0.115h-1.904v4.295h0.568v-1.907h0.659c0.146,0,0.252,0.007,0.316,0.021
	c0.088,0.021,0.174,0.06,0.26,0.114c0.084,0.055,0.181,0.15,0.288,0.287s0.244,0.334,0.41,0.592l0.568,0.894H345.537z
	 M347.462,325.726c0-0.23-0.06-0.434-0.179-0.611c-0.119-0.176-0.304-0.322-0.554-0.438c-0.172-0.078-0.489-0.169-0.95-0.273
	c-0.463-0.104-0.748-0.207-0.857-0.307c-0.111-0.1-0.167-0.227-0.167-0.381c0-0.178,0.078-0.33,0.235-0.455
	c0.157-0.127,0.408-0.189,0.752-0.189c0.33,0,0.579,0.069,0.748,0.208s0.269,0.344,0.298,0.615l0.545-0.041
	c-0.01-0.252-0.08-0.478-0.211-0.677s-0.317-0.35-0.562-0.453c-0.242-0.102-0.523-0.153-0.842-0.153
	c-0.289,0-0.552,0.049-0.788,0.146s-0.416,0.241-0.539,0.429c-0.123,0.189-0.185,0.392-0.185,0.608c0,0.197,0.05,0.376,0.15,0.534
	c0.101,0.16,0.254,0.293,0.459,0.4c0.158,0.084,0.435,0.174,0.829,0.268c0.395,0.096,0.649,0.165,0.765,0.21
	c0.18,0.068,0.309,0.153,0.387,0.253c0.078,0.102,0.117,0.219,0.117,0.354c0,0.133-0.041,0.256-0.121,0.367
	c-0.082,0.113-0.205,0.201-0.371,0.266s-0.357,0.097-0.574,0.097c-0.244,0-0.464-0.042-0.659-0.128
	c-0.195-0.084-0.34-0.195-0.433-0.334c-0.093-0.137-0.151-0.313-0.177-0.528l-0.536,0.047c0.008,0.287,0.086,0.545,0.236,0.772
	c0.148,0.228,0.354,0.397,0.617,0.511s0.589,0.17,0.978,0.17c0.307,0,0.582-0.057,0.827-0.169c0.245-0.111,0.434-0.27,0.564-0.471
	C347.396,326.169,347.462,325.955,347.462,325.726z M344.485,331.401c0.076-0.117,0.114-0.246,0.114-0.385
	c0-0.203-0.074-0.37-0.222-0.501s-0.38-0.196-0.698-0.196h-1.359v1.421h1.222c0.26,0,0.463-0.026,0.609-0.081
	C344.298,331.606,344.409,331.52,344.485,331.401z"/>
<path id="VISITOR_ENTRANCE" fill="#014079" d="M397.334,93.213c0.055,0.179,0.048,0.367-0.023,0.562
	c-0.07,0.195-0.217,0.425-0.439,0.691l-1.047,1.248l-1.451-1.218l1.164-1.389c0.273-0.325,0.539-0.507,0.799-0.545
	c0.262-0.038,0.495,0.03,0.702,0.204C397.18,92.885,397.278,93.035,397.334,93.213z M400.35,91.64l1.248-1.487l-1.6-0.562
	c-0.486-0.169-0.876-0.321-1.17-0.452c0.234,0.292,0.447,0.605,0.639,0.939L400.35,91.64z M395.036,82.375
	c0.529,0.444,1.063,0.65,1.607,0.622c0.543-0.029,0.995-0.258,1.354-0.687c0.366-0.437,0.514-0.925,0.443-1.465
	c-0.07-0.54-0.387-1.046-0.951-1.521c-0.357-0.299-0.721-0.5-1.088-0.604c-0.367-0.104-0.723-0.1-1.064,0.01
	c-0.341,0.11-0.633,0.309-0.875,0.598c-0.346,0.411-0.501,0.883-0.467,1.416C394.029,81.277,394.376,81.821,395.036,82.375z
	 M400.341,75.23c0.071-0.196,0.077-0.383,0.022-0.562s-0.154-0.328-0.295-0.447c-0.208-0.174-0.441-0.242-0.701-0.204
	s-0.527,0.22-0.8,0.545l-1.165,1.389l1.451,1.218l1.047-1.248C400.124,75.656,400.27,75.425,400.341,75.23z M426.912,68.356
	l-46.508,56.008l-17.287-14.348l46.508-56.008L426.912,68.356z M396.43,76.125l4.388,3.681l0.487-0.581l-1.948-1.634l0.565-0.673
	c0.125-0.149,0.223-0.252,0.291-0.306c0.098-0.072,0.211-0.127,0.34-0.167c0.129-0.04,0.309-0.056,0.541-0.049
	c0.231,0.008,0.549,0.037,0.955,0.088l1.4,0.185l0.612-0.73l-1.835-0.238c-0.36-0.044-0.689-0.047-0.987-0.008
	c-0.14,0.02-0.31,0.076-0.513,0.167c0.297-0.469,0.422-0.895,0.377-1.275s-0.223-0.702-0.533-0.962
	c-0.242-0.203-0.512-0.327-0.814-0.373s-0.578,0-0.826,0.138c-0.25,0.138-0.539,0.401-0.867,0.792L396.43,76.125z M393.308,80.944
	c0.083,0.737,0.489,1.411,1.218,2.021c0.385,0.323,0.82,0.546,1.307,0.667c0.484,0.122,0.964,0.104,1.437-0.053
	c0.473-0.158,0.882-0.443,1.228-0.856c0.32-0.381,0.527-0.812,0.623-1.292c0.097-0.48,0.044-0.958-0.156-1.432
	c-0.201-0.474-0.523-0.898-0.969-1.271c-0.439-0.368-0.902-0.612-1.392-0.732c-0.489-0.12-0.967-0.098-1.433,0.064
	c-0.468,0.163-0.871,0.447-1.21,0.852C393.44,79.53,393.223,80.208,393.308,80.944z M389.099,84.863l0.519,0.434l1.212-1.445
	l3.869,3.247l0.487-0.581l-3.869-3.247l1.218-1.452l-0.519-0.434L389.099,84.863z M388.029,86.138l4.387,3.681l0.487-0.581
	l-4.388-3.681L388.029,86.138z M385.162,90.596c0.088,0.287,0.242,0.523,0.463,0.709c0.201,0.168,0.428,0.27,0.676,0.304
	c0.248,0.034,0.516-0.009,0.801-0.126c0.223-0.089,0.55-0.294,0.984-0.617c0.436-0.323,0.727-0.522,0.87-0.602
	c0.224-0.125,0.421-0.184,0.59-0.178c0.17,0.006,0.323,0.067,0.462,0.183c0.135,0.113,0.226,0.26,0.271,0.439
	c0.044,0.179,0.029,0.38-0.048,0.605c-0.077,0.226-0.207,0.448-0.394,0.669c-0.209,0.249-0.44,0.438-0.695,0.564
	c-0.254,0.127-0.49,0.179-0.711,0.155c-0.221-0.023-0.451-0.114-0.691-0.272l-0.412,0.587c0.301,0.238,0.63,0.378,0.99,0.421
	c0.361,0.042,0.711-0.022,1.053-0.193c0.341-0.171,0.678-0.455,1.011-0.853c0.263-0.313,0.441-0.643,0.536-0.99
	c0.097-0.347,0.097-0.673,0.002-0.98c-0.094-0.307-0.258-0.558-0.49-0.754c-0.236-0.198-0.495-0.312-0.777-0.341
	c-0.283-0.029-0.592,0.034-0.922,0.19c-0.229,0.109-0.592,0.354-1.096,0.736c-0.503,0.382-0.852,0.587-1.047,0.613
	c-0.197,0.028-0.374-0.023-0.532-0.156c-0.182-0.153-0.269-0.363-0.263-0.631c0.006-0.269,0.156-0.579,0.451-0.93
	c0.283-0.337,0.567-0.532,0.854-0.586c0.287-0.054,0.58,0.02,0.883,0.223l0.426-0.592c-0.266-0.206-0.557-0.328-0.872-0.364
	s-0.63,0.024-0.943,0.185c-0.312,0.161-0.606,0.403-0.879,0.729c-0.248,0.295-0.423,0.605-0.525,0.93
	C385.082,90.002,385.076,90.309,385.162,90.596z M383.17,91.928l4.388,3.681l0.487-0.581l-4.388-3.681L383.17,91.928z
	 M385.097,98.541l0.5-0.595l-2.946-5.398l-0.497,0.593l2.192,3.858c0.164,0.291,0.338,0.57,0.52,0.839
	c-0.275-0.125-0.578-0.25-0.91-0.373l-4.145-1.534l-0.527,0.628L385.097,98.541z M390.252,107.332l-0.518-0.434l-2.26,2.693
	l-1.493-1.253l2.036-2.427l-0.515-0.432l-2.036,2.427l-1.344-1.127l2.174-2.591l-0.518-0.434l-2.661,3.172l4.387,3.681
	L390.252,107.332z M393.82,103.079l-4.387-3.681l-0.467,0.557l3.443,2.89l-5.377-0.586l-0.5,0.596l4.387,3.681l0.467-0.557
	l-3.447-2.892l5.381,0.588L393.82,103.079z M396.062,100.407l-3.869-3.247l1.217-1.451l-0.518-0.434l-2.917,3.477l0.518,0.434
	l1.213-1.445l3.869,3.247L396.062,100.407z M401.031,94.485l-1.834-0.238c-0.361-0.044-0.689-0.048-0.988-0.008
	c-0.139,0.02-0.309,0.076-0.512,0.167c0.295-0.469,0.421-0.895,0.377-1.275c-0.045-0.38-0.223-0.701-0.534-0.962
	c-0.241-0.203-0.513-0.327-0.814-0.373c-0.302-0.045-0.577,0-0.827,0.138c-0.249,0.138-0.537,0.401-0.865,0.792l-1.633,1.945
	l4.387,3.681l0.487-0.581l-1.948-1.634l0.565-0.673c0.126-0.15,0.222-0.252,0.292-0.306c0.097-0.072,0.21-0.127,0.338-0.167
	c0.129-0.04,0.309-0.056,0.541-0.049c0.232,0.008,0.551,0.038,0.957,0.088l1.398,0.185L401.031,94.485z M404.534,90.311
	l-5.894-1.885l-0.525,0.625l2.974,5.365l0.518-0.617l-0.925-1.596l1.539-1.834l1.758,0.603L404.534,90.311z M407.818,86.397
	l-4.387-3.681l-0.467,0.557l3.443,2.89l-5.377-0.586l-0.5,0.595l4.387,3.681l0.467-0.557l-3.447-2.892l5.381,0.588L407.818,86.397z
	 M410.898,82.116c0.016-0.527-0.166-1.05-0.539-1.572l-0.635,0.458c0.302,0.39,0.452,0.775,0.451,1.158
	c-0.002,0.383-0.139,0.736-0.412,1.062c-0.224,0.267-0.501,0.458-0.832,0.572c-0.33,0.114-0.68,0.108-1.049-0.017
	s-0.74-0.343-1.113-0.657c-0.289-0.243-0.532-0.524-0.728-0.844c-0.194-0.321-0.278-0.662-0.251-1.024
	c0.029-0.362,0.185-0.711,0.468-1.048c0.246-0.293,0.522-0.476,0.831-0.547s0.664-0.024,1.068,0.142l0.346-0.685
	c-0.504-0.222-0.993-0.277-1.468-0.166c-0.475,0.112-0.896,0.387-1.264,0.826c-0.325,0.387-0.534,0.816-0.628,1.286
	c-0.094,0.471-0.045,0.936,0.149,1.396s0.519,0.881,0.976,1.265c0.42,0.352,0.876,0.603,1.371,0.755
	c0.495,0.151,0.963,0.16,1.404,0.025c0.44-0.135,0.859-0.438,1.256-0.911C410.685,83.133,410.883,82.642,410.898,82.116z
	 M412.36,80.984l2.747-3.274l-0.518-0.434l-2.26,2.693l-1.493-1.253l2.036-2.427l-0.515-0.432l-2.036,2.427l-1.344-1.127
	l2.174-2.591l-0.518-0.434l-2.661,3.172L412.36,80.984z"/>
<path id="VISITOR_CORNER" fill="#014079" d="M322.054,138.084h-1.629v-1.895h1.812c0.425,0,0.735,0.087,0.932,0.262
	s0.295,0.397,0.295,0.668c0,0.185-0.051,0.356-0.152,0.514s-0.25,0.272-0.445,0.344S322.4,138.084,322.054,138.084z
	 M301.483,145.995c-0.304-0.191-0.644-0.287-1.021-0.287c-0.536,0-0.998,0.185-1.385,0.553s-0.58,0.983-0.58,1.846
	c0,0.69,0.186,1.233,0.557,1.631s0.837,0.596,1.396,0.596c0.57,0,1.04-0.2,1.408-0.602s0.553-0.97,0.553-1.707
	c0-0.466-0.079-0.873-0.236-1.221S301.787,146.186,301.483,145.995z M307.825,147.233c0.102-0.157,0.152-0.329,0.152-0.514
	c0-0.271-0.099-0.493-0.295-0.668s-0.507-0.262-0.932-0.262h-1.812v1.895h1.629c0.347,0,0.617-0.036,0.812-0.107
	S307.724,147.39,307.825,147.233z M324.716,147.233c0.102-0.157,0.152-0.329,0.152-0.514c0-0.271-0.099-0.493-0.295-0.668
	s-0.507-0.262-0.932-0.262h-1.812v1.895h1.629c0.347,0,0.617-0.036,0.812-0.107S324.614,147.39,324.716,147.233z M339.744,129.33
	v27.227h-60.596V129.33H339.744z M308.261,136.233h1.887v5.051h0.758v-5.051h1.895v-0.676h-4.539V136.233z M306.597,141.284h0.758
	v-5.727h-0.758V141.284z M299.038,141.284h0.758v-5.727h-0.758V141.284z M292.991,135.557l2.219,5.727h0.777l2.242-5.727h-0.773
	l-1.547,4.16c-0.117,0.312-0.22,0.625-0.309,0.938c-0.081-0.292-0.181-0.604-0.301-0.938l-1.488-4.16H292.991z M297.013,149.067
	l-0.758-0.191c-0.104,0.481-0.304,0.845-0.598,1.09s-0.653,0.367-1.078,0.367c-0.349,0-0.673-0.09-0.973-0.27
	s-0.521-0.451-0.662-0.814s-0.213-0.788-0.213-1.275c0-0.378,0.06-0.744,0.18-1.1s0.327-0.639,0.623-0.85s0.663-0.316,1.104-0.316
	c0.383,0,0.7,0.095,0.953,0.285s0.445,0.493,0.578,0.91l0.746-0.176c-0.153-0.528-0.426-0.938-0.816-1.23s-0.872-0.438-1.445-0.438
	c-0.505,0-0.968,0.115-1.389,0.346s-0.745,0.567-0.973,1.012s-0.342,0.964-0.342,1.561c0,0.547,0.101,1.059,0.303,1.535
	s0.496,0.841,0.883,1.092s0.889,0.377,1.506,0.377c0.597,0,1.101-0.163,1.514-0.49S296.854,149.689,297.013,149.067z
	 M303.192,148.028c0-0.573-0.111-1.085-0.334-1.537s-0.546-0.804-0.971-1.057s-0.901-0.379-1.43-0.379
	c-0.808,0-1.466,0.269-1.977,0.807s-0.766,1.282-0.766,2.232c0,0.503,0.109,0.979,0.328,1.43s0.54,0.806,0.965,1.066
	s0.906,0.391,1.445,0.391c0.497,0,0.961-0.118,1.391-0.354s0.762-0.583,0.996-1.041S303.192,148.609,303.192,148.028z
	 M303.315,141.381c0.409,0,0.776-0.075,1.104-0.225s0.577-0.359,0.752-0.629s0.262-0.557,0.262-0.861
	c0-0.308-0.079-0.579-0.238-0.814s-0.405-0.431-0.738-0.584c-0.229-0.104-0.651-0.226-1.268-0.365s-0.997-0.275-1.143-0.408
	c-0.148-0.133-0.223-0.302-0.223-0.508c0-0.237,0.104-0.439,0.314-0.607s0.544-0.252,1.002-0.252c0.44,0,0.772,0.093,0.998,0.277
	s0.357,0.458,0.396,0.82l0.727-0.055c-0.013-0.336-0.106-0.637-0.281-0.902s-0.424-0.467-0.748-0.604s-0.698-0.205-1.123-0.205
	c-0.386,0-0.735,0.065-1.051,0.195s-0.555,0.321-0.719,0.572s-0.246,0.521-0.246,0.811c0,0.263,0.067,0.501,0.201,0.713
	s0.338,0.39,0.611,0.533c0.211,0.112,0.579,0.231,1.105,0.357s0.866,0.22,1.02,0.279c0.239,0.091,0.411,0.204,0.516,0.338
	s0.156,0.291,0.156,0.471c0,0.177-0.054,0.341-0.162,0.49s-0.272,0.268-0.494,0.354s-0.477,0.129-0.766,0.129
	c-0.325,0-0.618-0.057-0.879-0.17s-0.452-0.262-0.576-0.445s-0.202-0.419-0.236-0.705l-0.715,0.062
	c0.011,0.383,0.115,0.726,0.314,1.029s0.474,0.53,0.824,0.682S302.797,141.381,303.315,141.381z M309.228,150.883l-0.996-1.559
	c-0.198-0.305-0.407-0.559-0.629-0.762c-0.104-0.094-0.257-0.188-0.457-0.285c0.55-0.075,0.956-0.253,1.219-0.531
	s0.395-0.621,0.395-1.027c0-0.315-0.079-0.603-0.238-0.863s-0.371-0.442-0.637-0.545s-0.653-0.154-1.164-0.154h-2.539v5.727h0.758
	v-2.543h0.879c0.195,0,0.336,0.009,0.422,0.027c0.117,0.028,0.232,0.079,0.346,0.152s0.241,0.2,0.385,0.383s0.325,0.445,0.547,0.789
	l0.758,1.191H309.228z M314.45,145.157h-0.727v4.496l-3.008-4.496h-0.777v5.727h0.727v-4.5l3.008,4.5h0.777V145.157z
	 M314.495,140.991c0.425,0.261,0.906,0.391,1.445,0.391c0.497,0,0.961-0.118,1.391-0.354s0.762-0.583,0.996-1.041
	s0.352-0.978,0.352-1.559c0-0.573-0.111-1.085-0.334-1.537s-0.546-0.804-0.971-1.057s-0.901-0.379-1.43-0.379
	c-0.808,0-1.466,0.269-1.977,0.807s-0.766,1.282-0.766,2.232c0,0.503,0.109,0.979,0.328,1.43S314.07,140.73,314.495,140.991z
	 M320.013,150.208h-3.516v-1.949h3.168v-0.672h-3.168v-1.754h3.383v-0.676h-4.141v5.727h4.273V150.208z M320.425,138.741h0.879
	c0.195,0,0.336,0.009,0.422,0.027c0.117,0.028,0.232,0.079,0.346,0.152s0.241,0.2,0.385,0.383s0.325,0.445,0.547,0.789l0.758,1.191
	h0.953l-0.996-1.559c-0.198-0.305-0.407-0.559-0.629-0.762c-0.104-0.094-0.257-0.188-0.457-0.285
	c0.55-0.075,0.956-0.253,1.219-0.531s0.395-0.621,0.395-1.027c0-0.315-0.079-0.603-0.238-0.863s-0.371-0.442-0.637-0.545
	s-0.653-0.154-1.164-0.154h-2.539v5.727h0.758V138.741z M326.118,150.883l-0.996-1.559c-0.198-0.305-0.407-0.559-0.629-0.762
	c-0.104-0.094-0.257-0.188-0.457-0.285c0.55-0.075,0.956-0.253,1.219-0.531s0.395-0.621,0.395-1.027
	c0-0.315-0.079-0.603-0.238-0.863s-0.371-0.442-0.637-0.545s-0.653-0.154-1.164-0.154h-2.539v5.727h0.758v-2.543h0.879
	c0.195,0,0.336,0.009,0.422,0.027c0.117,0.028,0.232,0.079,0.346,0.152s0.241,0.2,0.385,0.383s0.325,0.445,0.547,0.789l0.758,1.191
	H326.118z M317.897,138.424c0-0.466-0.079-0.873-0.236-1.221s-0.388-0.617-0.691-0.809s-0.644-0.287-1.021-0.287
	c-0.536,0-0.998,0.185-1.385,0.553s-0.58,0.983-0.58,1.846c0,0.69,0.186,1.233,0.557,1.631s0.837,0.596,1.396,0.596
	c0.57,0,1.04-0.2,1.408-0.602S317.897,139.162,317.897,138.424z"/>
<path id="TECH_BOOTH" fill="#014079" d="M343.61,215.401h-0.929v-1.297h0.858c0.309,0,0.526,0.02,0.653,0.059
	c0.127,0.041,0.225,0.115,0.293,0.223c0.068,0.109,0.103,0.234,0.103,0.377c0,0.15-0.036,0.275-0.11,0.375
	c-0.072,0.1-0.182,0.172-0.326,0.215C344.043,215.385,343.862,215.401,343.61,215.401z M348.791,214.225
	c-0.228-0.145-0.482-0.215-0.766-0.215c-0.402,0-0.748,0.139-1.039,0.414c-0.289,0.277-0.435,0.738-0.435,1.385
	c0,0.518,0.14,0.926,0.417,1.223c0.279,0.299,0.628,0.447,1.048,0.447c0.428,0,0.779-0.15,1.056-0.451s0.415-0.729,0.415-1.281
	c0-0.35-0.06-0.654-0.177-0.916C349.191,214.571,349.019,214.368,348.791,214.225z M344.303,215.979
	c-0.146-0.047-0.354-0.07-0.628-0.07h-0.993v1.477h1.069c0.184,0,0.312-0.008,0.387-0.021c0.131-0.023,0.24-0.062,0.328-0.117
	s0.16-0.133,0.217-0.238c0.057-0.104,0.085-0.225,0.085-0.361c0-0.16-0.041-0.299-0.123-0.418
	C344.562,216.112,344.448,216.028,344.303,215.979z M353.458,214.225c-0.228-0.145-0.482-0.215-0.766-0.215
	c-0.402,0-0.748,0.139-1.039,0.414c-0.289,0.277-0.435,0.738-0.435,1.385c0,0.518,0.14,0.926,0.417,1.223
	c0.279,0.299,0.628,0.447,1.048,0.447c0.428,0,0.779-0.15,1.056-0.451s0.415-0.729,0.415-1.281c0-0.35-0.06-0.654-0.177-0.916
	C353.858,214.571,353.686,214.368,353.458,214.225z M369.021,187.869v47.647H335.66v-47.647H369.021z M356.655,210.692h0.568v-2.025
	h2.232v2.025h0.568v-4.295h-0.568v1.764h-2.232v-1.764h-0.568V210.692z M352.141,208.512c0,0.41,0.075,0.793,0.227,1.15
	s0.373,0.631,0.662,0.82c0.291,0.188,0.667,0.281,1.13,0.281c0.447,0,0.825-0.121,1.136-0.367c0.309-0.244,0.523-0.602,0.643-1.068
	l-0.568-0.143c-0.078,0.361-0.228,0.633-0.448,0.816s-0.49,0.275-0.809,0.275c-0.262,0-0.505-0.066-0.729-0.201
	s-0.391-0.338-0.496-0.611c-0.107-0.271-0.16-0.592-0.16-0.957c0-0.283,0.045-0.557,0.135-0.824c0.09-0.266,0.245-0.479,0.467-0.637
	s0.498-0.238,0.828-0.238c0.287,0,0.525,0.072,0.715,0.215s0.334,0.369,0.434,0.682l0.56-0.131
	c-0.115-0.396-0.319-0.705-0.612-0.924s-0.654-0.328-1.084-0.328c-0.379,0-0.727,0.088-1.041,0.26
	c-0.316,0.174-0.56,0.426-0.73,0.76C352.226,207.674,352.141,208.065,352.141,208.512z M348.314,210.692h3.205v-0.508h-2.637v-1.461
	h2.376v-0.504h-2.376v-1.316h2.537v-0.506h-3.105V210.692z M345.356,216.647c0-0.25-0.07-0.467-0.21-0.65s-0.339-0.314-0.599-0.391
	c0.201-0.1,0.352-0.23,0.451-0.393s0.149-0.334,0.149-0.518c0-0.197-0.057-0.387-0.168-0.568c-0.113-0.18-0.269-0.312-0.467-0.4
	c-0.198-0.086-0.461-0.131-0.789-0.131h-1.611v4.295h1.638c0.273,0,0.504-0.023,0.692-0.072c0.188-0.047,0.346-0.117,0.471-0.211
	s0.23-0.229,0.314-0.4C345.314,217.034,345.356,216.848,345.356,216.647z M345.73,206.903v3.789h0.568v-3.789h1.421v-0.506h-3.404
	v0.506H345.73z M350.073,215.75c0-0.43-0.083-0.814-0.251-1.154c-0.166-0.338-0.409-0.602-0.728-0.791s-0.676-0.285-1.072-0.285
	c-0.605,0-1.1,0.203-1.482,0.605c-0.383,0.404-0.574,0.961-0.574,1.674c0,0.377,0.082,0.734,0.246,1.072s0.405,0.605,0.724,0.801
	s0.68,0.293,1.084,0.293c0.373,0,0.721-0.088,1.043-0.266c0.322-0.176,0.571-0.438,0.747-0.781S350.073,216.186,350.073,215.75z
	 M354.74,215.75c0-0.43-0.083-0.814-0.251-1.154c-0.166-0.338-0.409-0.602-0.728-0.791s-0.676-0.285-1.072-0.285
	c-0.605,0-1.1,0.203-1.482,0.605c-0.383,0.404-0.574,0.961-0.574,1.674c0,0.377,0.082,0.734,0.246,1.072s0.405,0.605,0.724,0.801
	s0.68,0.293,1.084,0.293c0.373,0,0.721-0.088,1.043-0.266c0.322-0.176,0.571-0.438,0.747-0.781S354.74,216.186,354.74,215.75z
	 M358.555,213.596h-3.404v0.508h1.415v3.787h0.568v-3.787h1.421V213.596z M362.524,213.596h-0.568v1.764h-2.232v-1.764h-0.568v4.295
	h0.568v-2.023h2.232v2.023h0.568V213.596z"/>
<path id="STUDY_ROOM" fill="#014079" d="M191.098,73.788c0.246,0.402,0.369,0.978,0.369,1.727c0,0.54-0.062,1-0.188,1.379
	c-0.126,0.38-0.301,0.682-0.525,0.906c-0.159,0.159-0.373,0.283-0.643,0.371c-0.268,0.088-0.639,0.132-1.11,0.132h-1.528v-5.469
	h1.504c0.563,0,0.972,0.049,1.226,0.146C190.554,73.117,190.853,73.387,191.098,73.788z M258.75,84.94l-4.003,0.183
	c2.043,1.25,1.753,4.063,1.753,4.063c0,1.996-1.75,4.748-1.75,4.748h4v16.004c-0.75-0.001-3.25-0.749-4.25-3.749
	c1,3.5-3.266,3.749-3.266,3.749v-4.749L245,109.938h-80c0,0-3.75-3.749-4-3.749c-1.5-1.5-1.25,3.25-1.5,3.111
	c0,0-3,0.639-4.25-3.111c-1,4-4,3-4,3v-2.75l-23.931-66.75H258.75V84.94z M171.901,77.126c0-0.384-0.1-0.724-0.298-1.018
	c-0.198-0.295-0.506-0.538-0.923-0.73c-0.286-0.13-0.814-0.282-1.585-0.457c-0.77-0.174-1.245-0.344-1.428-0.51
	c-0.186-0.166-0.278-0.378-0.278-0.635c0-0.296,0.131-0.549,0.394-0.76c0.262-0.209,0.679-0.314,1.252-0.314
	c0.55,0,0.966,0.115,1.248,0.347c0.281,0.231,0.446,0.573,0.495,1.025l0.908-0.068c-0.017-0.42-0.134-0.796-0.352-1.128
	s-0.53-0.584-0.935-0.754c-0.406-0.172-0.874-0.257-1.404-0.257c-0.481,0-0.92,0.081-1.313,0.244s-0.693,0.401-0.898,0.716
	c-0.205,0.313-0.308,0.651-0.308,1.013c0,0.329,0.084,0.626,0.252,0.892c0.167,0.265,0.422,0.487,0.764,0.666
	c0.264,0.14,0.725,0.289,1.382,0.447c0.657,0.157,1.082,0.273,1.274,0.349c0.3,0.114,0.515,0.255,0.645,0.423
	c0.13,0.167,0.195,0.363,0.195,0.588c0,0.222-0.067,0.426-0.203,0.613c-0.135,0.187-0.341,0.334-0.617,0.441
	s-0.596,0.161-0.957,0.161c-0.407,0-0.773-0.071-1.099-0.212c-0.325-0.143-0.565-0.328-0.72-0.557
	c-0.155-0.23-0.254-0.523-0.296-0.882l-0.894,0.078c0.013,0.479,0.145,0.907,0.393,1.286c0.25,0.38,0.593,0.664,1.031,0.853
	c0.438,0.188,0.98,0.283,1.628,0.283c0.511,0,0.971-0.094,1.38-0.28c0.408-0.188,0.722-0.449,0.939-0.787
	C171.792,77.866,171.901,77.507,171.901,77.126z M178.332,71.989h-5.674v0.845h2.358v6.313h0.947v-6.313h2.368V71.989z
	 M184.948,71.989h-0.947v4.131c0,0.898-0.148,1.506-0.444,1.821s-0.793,0.474-1.489,0.474c-0.407,0-0.751-0.08-1.033-0.239
	c-0.281-0.159-0.479-0.387-0.596-0.681c-0.115-0.295-0.173-0.753-0.173-1.375v-4.131h-0.947v4.136c0,0.759,0.091,1.356,0.273,1.794
	c0.183,0.438,0.486,0.772,0.913,1.004s0.975,0.347,1.646,0.347c0.69,0,1.247-0.133,1.673-0.397c0.424-0.266,0.718-0.61,0.881-1.033
	s0.244-0.994,0.244-1.714V71.989z M192.443,75.529c0-0.638-0.094-1.205-0.281-1.702c-0.187-0.496-0.469-0.903-0.847-1.223
	c-0.29-0.247-0.64-0.418-1.05-0.513c-0.293-0.068-0.718-0.103-1.274-0.103h-2.466v7.158h2.583c0.433,0,0.816-0.041,1.149-0.122
	c0.334-0.081,0.619-0.201,0.855-0.358c0.235-0.158,0.453-0.375,0.651-0.65c0.198-0.274,0.361-0.622,0.488-1.042
	S192.443,76.073,192.443,75.529z M199.567,71.989h-1.104l-1.387,2.104c-0.306,0.469-0.566,0.891-0.781,1.265
	c-0.225-0.403-0.467-0.808-0.728-1.211l-1.411-2.158h-1.152l2.759,4.126v3.032h0.947v-3.032L199.567,71.989z M209.338,79.147
	l-1.245-1.948c-0.247-0.381-0.51-0.698-0.786-0.952c-0.13-0.117-0.32-0.236-0.571-0.356c0.687-0.095,1.194-0.315,1.523-0.664
	s0.493-0.776,0.493-1.284c0-0.394-0.1-0.754-0.298-1.079s-0.464-0.553-0.796-0.681c-0.332-0.129-0.817-0.193-1.455-0.193h-3.174
	v7.158h0.947v-3.179h1.099c0.244,0,0.42,0.012,0.527,0.034c0.146,0.036,0.291,0.1,0.432,0.19c0.143,0.091,0.303,0.251,0.481,0.479
	s0.407,0.557,0.684,0.986l0.947,1.489H209.338z M216.794,75.578c0-0.716-0.14-1.356-0.417-1.921
	c-0.279-0.565-0.684-1.006-1.214-1.321s-1.126-0.474-1.787-0.474c-1.009,0-1.833,0.336-2.471,1.008
	c-0.638,0.673-0.957,1.603-0.957,2.791c0,0.628,0.137,1.224,0.41,1.787s0.676,1.008,1.206,1.333s1.133,0.488,1.807,0.488
	c0.622,0,1.201-0.147,1.738-0.442c0.537-0.294,0.952-0.728,1.245-1.301S216.794,76.304,216.794,75.578z M224.572,75.578
	c0-0.716-0.14-1.356-0.417-1.921c-0.279-0.565-0.684-1.006-1.214-1.321s-1.126-0.474-1.787-0.474c-1.009,0-1.833,0.336-2.471,1.008
	c-0.638,0.673-0.957,1.603-0.957,2.791c0,0.628,0.137,1.224,0.41,1.787s0.676,1.008,1.206,1.333s1.133,0.488,1.807,0.488
	c0.622,0,1.201-0.147,1.738-0.442c0.537-0.294,0.952-0.728,1.245-1.301S224.572,76.304,224.572,75.578z M232.595,71.989h-1.274
	l-1.714,4.98c-0.173,0.505-0.3,0.887-0.381,1.147c-0.071-0.234-0.186-0.588-0.342-1.06l-1.694-5.068h-1.426v7.158h0.913v-6.094
	l2.07,6.094h0.854l2.08-5.991v5.991h0.913V71.989z M214.658,73.036c-0.38-0.238-0.806-0.358-1.277-0.358
	c-0.671,0-1.248,0.23-1.73,0.69c-0.484,0.461-0.726,1.23-0.726,2.308c0,0.862,0.231,1.542,0.696,2.038
	c0.463,0.497,1.045,0.745,1.745,0.745c0.713,0,1.3-0.251,1.761-0.752c0.46-0.501,0.69-1.213,0.69-2.134
	c0-0.583-0.099-1.092-0.296-1.525C215.325,73.612,215.037,73.276,214.658,73.036z M222.437,73.036
	c-0.38-0.238-0.806-0.358-1.277-0.358c-0.671,0-1.248,0.23-1.73,0.69c-0.484,0.461-0.726,1.23-0.726,2.308
	c0,0.862,0.231,1.542,0.696,2.038c0.463,0.497,1.045,0.745,1.745,0.745c0.713,0,1.3-0.251,1.761-0.752
	c0.46-0.501,0.69-1.213,0.69-2.134c0-0.583-0.099-1.092-0.296-1.525C223.104,73.612,222.815,73.276,222.437,73.036z M207.585,74.585
	c0.127-0.197,0.19-0.411,0.19-0.643c0-0.339-0.123-0.617-0.368-0.835c-0.246-0.218-0.635-0.327-1.165-0.327h-2.266v2.368h2.036
	c0.433,0,0.771-0.045,1.016-0.134C207.272,74.925,207.458,74.781,207.585,74.585z"/>
<path id="SILENT_AUCTION" fill="#014079" d="M341.079,174.937l0.448,1.189h-1.456l0.472-1.26c0.1-0.271,0.177-0.545,0.231-0.82
	C340.841,174.279,340.942,174.576,341.079,174.937z M359.956,174.224c-0.228-0.145-0.482-0.216-0.766-0.216
	c-0.402,0-0.748,0.139-1.039,0.415c-0.289,0.276-0.435,0.737-0.435,1.384c0,0.518,0.14,0.926,0.417,1.224
	c0.279,0.298,0.628,0.446,1.048,0.446c0.428,0,0.779-0.15,1.056-0.451s0.415-0.728,0.415-1.28c0-0.35-0.06-0.654-0.177-0.916
	C360.356,174.57,360.184,174.367,359.956,174.224z M369.021,158.44v27H335.66v-27H369.021z M348,170.69h2.684v-0.507h-2.115v-3.788
	H348V170.69z M342.852,177.89l-1.758-4.295h-0.612l-1.649,4.295h0.604l0.472-1.301h1.796l0.501,1.301H342.852z M343.015,170.593
	c0.263,0.113,0.589,0.17,0.978,0.17c0.307,0,0.582-0.057,0.827-0.169c0.245-0.111,0.434-0.27,0.564-0.471
	c0.131-0.203,0.196-0.418,0.196-0.646c0-0.23-0.06-0.434-0.179-0.611c-0.119-0.176-0.304-0.322-0.554-0.438
	c-0.172-0.078-0.489-0.169-0.95-0.273c-0.463-0.104-0.748-0.207-0.857-0.307c-0.111-0.1-0.167-0.227-0.167-0.381
	c0-0.178,0.078-0.33,0.235-0.455c0.157-0.127,0.408-0.189,0.752-0.189c0.33,0,0.579,0.069,0.748,0.208s0.269,0.344,0.298,0.615
	l0.545-0.041c-0.01-0.252-0.08-0.478-0.211-0.677s-0.317-0.35-0.562-0.453c-0.242-0.102-0.523-0.153-0.842-0.153
	c-0.289,0-0.552,0.049-0.788,0.146s-0.416,0.241-0.539,0.429c-0.123,0.189-0.185,0.392-0.185,0.608c0,0.197,0.05,0.376,0.15,0.534
	c0.101,0.16,0.254,0.293,0.459,0.4c0.158,0.084,0.435,0.174,0.829,0.268c0.395,0.096,0.649,0.165,0.765,0.21
	c0.18,0.068,0.309,0.153,0.387,0.253c0.078,0.102,0.117,0.219,0.117,0.354c0,0.133-0.041,0.256-0.121,0.367
	c-0.082,0.113-0.205,0.201-0.371,0.266s-0.357,0.097-0.574,0.097c-0.244,0-0.464-0.042-0.659-0.128
	c-0.195-0.084-0.34-0.195-0.433-0.334c-0.093-0.137-0.151-0.313-0.177-0.528l-0.536,0.047c0.008,0.287,0.086,0.545,0.236,0.772
	C342.546,170.31,342.752,170.48,343.015,170.593z M346.692,173.595h-0.568v2.479c0,0.539-0.089,0.903-0.267,1.093
	s-0.476,0.284-0.894,0.284c-0.244,0-0.451-0.048-0.619-0.144c-0.17-0.096-0.289-0.231-0.357-0.409
	c-0.07-0.176-0.104-0.451-0.104-0.824v-2.479h-0.568v2.481c0,0.455,0.055,0.814,0.164,1.077s0.292,0.463,0.548,0.602
	s0.585,0.208,0.987,0.208c0.414,0,0.749-0.079,1.003-0.239c0.256-0.158,0.432-0.365,0.529-0.619s0.146-0.597,0.146-1.028V173.595z
	 M347.021,166.395h-0.568v4.295h0.568V166.395z M351.271,176.528l-0.568-0.144c-0.078,0.361-0.228,0.634-0.448,0.817
	s-0.49,0.275-0.809,0.275c-0.262,0-0.505-0.067-0.729-0.202s-0.391-0.338-0.496-0.611c-0.107-0.271-0.16-0.591-0.16-0.956
	c0-0.283,0.045-0.558,0.135-0.825c0.09-0.266,0.245-0.479,0.467-0.637s0.498-0.237,0.828-0.237c0.287,0,0.525,0.071,0.715,0.214
	s0.334,0.37,0.434,0.683l0.56-0.132c-0.115-0.396-0.319-0.704-0.612-0.923s-0.654-0.328-1.084-0.328
	c-0.379,0-0.727,0.087-1.041,0.259c-0.316,0.174-0.56,0.427-0.73,0.76s-0.256,0.723-0.256,1.17c0,0.41,0.075,0.794,0.227,1.151
	s0.373,0.631,0.662,0.819c0.291,0.188,0.667,0.282,1.13,0.282c0.447,0,0.825-0.122,1.136-0.368
	C350.938,177.351,351.152,176.995,351.271,176.528z M351.372,170.69h3.205v-0.507h-2.637v-1.462h2.376v-0.504h-2.376v-1.315h2.537
	v-0.507h-3.105V170.69z M355.054,173.595h-3.404v0.507h1.415v3.788h0.568v-3.788h1.421V173.595z M355.356,170.69h0.545v-3.375
	l2.256,3.375h0.583v-4.295h-0.545v3.372l-2.256-3.372h-0.583V170.69z M356.302,173.595h-0.568v4.295h0.568V173.595z
	 M361.238,175.749c0-0.43-0.083-0.813-0.251-1.153c-0.166-0.338-0.409-0.603-0.728-0.792s-0.676-0.284-1.072-0.284
	c-0.605,0-1.1,0.202-1.482,0.605s-0.574,0.961-0.574,1.674c0,0.377,0.082,0.734,0.246,1.072s0.405,0.604,0.724,0.8
	s0.68,0.293,1.084,0.293c0.373,0,0.721-0.088,1.043-0.265s0.571-0.438,0.747-0.781S361.238,176.184,361.238,175.749z
	 M361.356,166.902h1.421v-0.507h-3.404v0.507h1.415v3.788h0.568V166.902z M365.349,173.595h-0.545v3.372l-2.256-3.372h-0.583v4.295
	h0.545v-3.375l2.256,3.375h0.583V173.595z"/>
<path id="SIDE_STAGE" fill="#F37021" d="M238.432,274.623c0.246,0.402,0.369,0.978,0.369,1.727c0,0.54-0.062,1-0.188,1.379
	c-0.126,0.38-0.301,0.682-0.525,0.906c-0.159,0.159-0.373,0.283-0.643,0.371c-0.268,0.088-0.639,0.132-1.11,0.132h-1.528v-5.469
	h1.504c0.563,0,0.972,0.049,1.226,0.146C237.888,273.952,238.187,274.221,238.432,274.623z M297,266.828v18.309h-87.25v-18.309H297z
	 M229.787,277.96c0-0.384-0.1-0.724-0.298-1.018c-0.198-0.295-0.506-0.538-0.923-0.73c-0.286-0.13-0.814-0.282-1.585-0.457
	c-0.77-0.174-1.245-0.344-1.428-0.51c-0.186-0.166-0.278-0.378-0.278-0.635c0-0.296,0.131-0.549,0.394-0.76
	c0.262-0.209,0.679-0.314,1.252-0.314c0.55,0,0.966,0.115,1.248,0.347c0.281,0.231,0.446,0.573,0.495,1.025l0.908-0.068
	c-0.017-0.42-0.134-0.796-0.352-1.128s-0.53-0.584-0.935-0.754c-0.406-0.172-0.874-0.257-1.404-0.257
	c-0.481,0-0.92,0.081-1.313,0.244s-0.693,0.401-0.898,0.716c-0.205,0.313-0.308,0.651-0.308,1.013c0,0.329,0.084,0.626,0.252,0.892
	c0.167,0.265,0.422,0.487,0.764,0.666c0.264,0.14,0.725,0.289,1.382,0.447c0.657,0.157,1.082,0.273,1.274,0.349
	c0.3,0.114,0.515,0.255,0.645,0.423c0.13,0.167,0.195,0.363,0.195,0.588c0,0.222-0.067,0.426-0.203,0.613
	c-0.135,0.187-0.341,0.334-0.617,0.441s-0.596,0.161-0.957,0.161c-0.407,0-0.773-0.071-1.099-0.212
	c-0.325-0.143-0.565-0.328-0.72-0.557c-0.155-0.23-0.254-0.523-0.296-0.882l-0.894,0.078c0.013,0.479,0.145,0.907,0.393,1.286
	c0.25,0.38,0.593,0.664,1.031,0.853c0.438,0.188,0.98,0.283,1.628,0.283c0.511,0,0.971-0.094,1.38-0.28
	c0.408-0.188,0.722-0.449,0.939-0.787C229.678,278.701,229.787,278.341,229.787,277.96z M232.189,272.824h-0.947v7.158h0.947
	V272.824z M239.777,276.364c0-0.638-0.094-1.205-0.281-1.702c-0.187-0.496-0.469-0.903-0.847-1.223
	c-0.29-0.247-0.64-0.418-1.05-0.513c-0.293-0.068-0.718-0.103-1.274-0.103h-2.466v7.158h2.583c0.433,0,0.816-0.041,1.149-0.122
	c0.334-0.081,0.619-0.201,0.855-0.358c0.235-0.158,0.453-0.375,0.651-0.65c0.198-0.274,0.361-0.622,0.488-1.042
	S239.777,276.908,239.777,276.364z M246.442,279.137h-4.395v-2.437h3.96v-0.84h-3.96v-2.192h4.229v-0.845h-5.176v7.158h5.342
	V279.137z M255.905,277.96c0-0.384-0.1-0.724-0.298-1.018c-0.198-0.295-0.506-0.538-0.923-0.73c-0.286-0.13-0.814-0.282-1.585-0.457
	c-0.77-0.174-1.245-0.344-1.428-0.51c-0.186-0.166-0.278-0.378-0.278-0.635c0-0.296,0.131-0.549,0.394-0.76
	c0.262-0.209,0.679-0.314,1.252-0.314c0.55,0,0.966,0.115,1.248,0.347c0.281,0.231,0.446,0.573,0.495,1.025l0.908-0.068
	c-0.017-0.42-0.134-0.796-0.352-1.128s-0.53-0.584-0.935-0.754c-0.406-0.172-0.874-0.257-1.404-0.257
	c-0.481,0-0.92,0.081-1.313,0.244s-0.693,0.401-0.898,0.716c-0.205,0.313-0.308,0.651-0.308,1.013c0,0.329,0.084,0.626,0.252,0.892
	c0.167,0.265,0.422,0.487,0.764,0.666c0.264,0.14,0.725,0.289,1.382,0.447c0.657,0.157,1.082,0.273,1.274,0.349
	c0.3,0.114,0.515,0.255,0.645,0.423c0.13,0.167,0.195,0.363,0.195,0.588c0,0.222-0.067,0.426-0.203,0.613
	c-0.135,0.187-0.341,0.334-0.617,0.441s-0.596,0.161-0.957,0.161c-0.407,0-0.773-0.071-1.099-0.212
	c-0.325-0.143-0.565-0.328-0.72-0.557c-0.155-0.23-0.254-0.523-0.296-0.882l-0.894,0.078c0.013,0.479,0.145,0.907,0.393,1.286
	c0.25,0.38,0.593,0.664,1.031,0.853c0.438,0.188,0.98,0.283,1.628,0.283c0.511,0,0.971-0.094,1.38-0.28
	c0.408-0.188,0.722-0.449,0.939-0.787C255.796,278.701,255.905,278.341,255.905,277.96z M259.968,273.668h2.368v-0.845h-5.674v0.845
	h2.358v6.313h0.947V273.668z M268.479,279.982l-2.93-7.158h-1.021l-2.749,7.158h1.006l0.786-2.168h2.993l0.835,2.168H268.479z
	 M275.617,276.33l-3.032,0.005v0.84h2.104v1.333c-0.202,0.179-0.498,0.348-0.889,0.506c-0.391,0.157-0.791,0.236-1.201,0.236
	c-0.472,0-0.918-0.104-1.338-0.312s-0.739-0.527-0.96-0.957c-0.219-0.43-0.329-0.964-0.329-1.602c0-0.518,0.091-0.998,0.273-1.44
	c0.107-0.257,0.258-0.493,0.452-0.708c0.193-0.215,0.448-0.389,0.764-0.52c0.315-0.133,0.69-0.198,1.123-0.198
	c0.361,0,0.69,0.062,0.986,0.188c0.296,0.125,0.524,0.292,0.684,0.5s0.293,0.495,0.4,0.859l0.854-0.234
	c-0.124-0.481-0.305-0.872-0.542-1.172s-0.565-0.533-0.984-0.701c-0.418-0.167-0.886-0.251-1.403-0.251
	c-0.713,0-1.343,0.146-1.89,0.439s-0.966,0.741-1.258,1.345c-0.291,0.604-0.437,1.255-0.437,1.951c0,0.703,0.146,1.34,0.439,1.909
	s0.727,1.005,1.302,1.306c0.574,0.302,1.213,0.452,1.916,0.452c0.521,0,1.028-0.094,1.523-0.28c0.495-0.188,0.975-0.467,1.44-0.838
	V276.33z M282.375,279.137h-4.395v-2.437h3.96v-0.84h-3.96v-2.192h4.229v-0.845h-5.176v7.158h5.342V279.137z M265.017,273.576
	c-0.091,0.459-0.22,0.915-0.386,1.367l-0.786,2.1h2.427l-0.747-1.982C265.297,274.458,265.127,273.963,265.017,273.576z"/>
<path id="PHOTO_BOOTH" fill="#014079" d="M184.406,271.236c0.09,0.128,0.136,0.281,0.136,0.461c0,0.248-0.077,0.44-0.231,0.577
	s-0.415,0.205-0.782,0.205h-1.11v-1.535h1.099c0.258,0,0.435,0.013,0.53,0.038C184.195,271.023,184.314,271.108,184.406,271.236z
	 M183.962,280.02c-0.146-0.047-0.354-0.071-0.628-0.071h-0.993v1.477h1.069c0.184,0,0.312-0.007,0.387-0.021
	c0.131-0.023,0.24-0.062,0.328-0.117s0.16-0.134,0.217-0.238s0.085-0.226,0.085-0.362c0-0.16-0.041-0.299-0.123-0.417
	S184.107,280.069,183.962,280.02z M192.062,274.319c0.428,0,0.779-0.15,1.056-0.451s0.415-0.728,0.415-1.28
	c0-0.35-0.06-0.654-0.177-0.916c-0.119-0.26-0.292-0.463-0.52-0.605c-0.228-0.145-0.482-0.216-0.766-0.216
	c-0.402,0-0.748,0.139-1.039,0.415c-0.289,0.276-0.435,0.737-0.435,1.384c0,0.518,0.14,0.926,0.417,1.224
	C191.294,274.17,191.643,274.319,192.062,274.319z M193.117,278.266c-0.228-0.145-0.482-0.216-0.766-0.216
	c-0.402,0-0.748,0.139-1.039,0.415c-0.289,0.276-0.435,0.737-0.435,1.384c0,0.518,0.14,0.926,0.417,1.224
	c0.279,0.298,0.628,0.446,1.048,0.446c0.428,0,0.779-0.15,1.056-0.451s0.415-0.728,0.415-1.28c0-0.35-0.06-0.654-0.177-0.916
	C193.518,278.612,193.345,278.409,193.117,278.266z M188.45,278.266c-0.228-0.145-0.482-0.216-0.766-0.216
	c-0.402,0-0.748,0.139-1.039,0.415c-0.289,0.276-0.435,0.737-0.435,1.384c0,0.518,0.14,0.926,0.417,1.224
	c0.279,0.298,0.628,0.446,1.048,0.446c0.428,0,0.779-0.15,1.056-0.451s0.415-0.728,0.415-1.28c0-0.35-0.06-0.654-0.177-0.916
	C188.851,278.612,188.678,278.409,188.45,278.266z M183.812,279.392c0.145-0.043,0.254-0.114,0.326-0.214
	c0.074-0.1,0.11-0.225,0.11-0.375c0-0.143-0.034-0.268-0.103-0.377c-0.068-0.107-0.166-0.182-0.293-0.223
	c-0.127-0.039-0.345-0.06-0.653-0.06h-0.858v1.298h0.929C183.521,279.442,183.702,279.425,183.812,279.392z M205.617,266.828v19.059
	h-27.234v-19.059H205.617z M185.869,274.732h0.568v-2.024h2.232v2.024h0.568v-4.295h-0.568v1.764h-2.232v-1.764h-0.568V274.732z
	 M185.016,280.687c0-0.25-0.07-0.467-0.21-0.65s-0.339-0.313-0.599-0.39c0.201-0.1,0.352-0.23,0.451-0.393s0.149-0.335,0.149-0.519
	c0-0.197-0.057-0.386-0.168-0.567c-0.113-0.18-0.269-0.313-0.467-0.4s-0.461-0.131-0.789-0.131h-1.611v4.295h1.638
	c0.273,0,0.504-0.023,0.692-0.072c0.188-0.047,0.346-0.118,0.471-0.212s0.23-0.228,0.314-0.399
	C184.974,281.075,185.016,280.888,185.016,280.687z M185.128,271.679c0-0.213-0.044-0.408-0.13-0.586
	c-0.088-0.178-0.202-0.315-0.345-0.414s-0.319-0.166-0.53-0.201c-0.15-0.027-0.368-0.041-0.653-0.041h-1.62v4.295h0.568v-1.746
	h1.102c0.607,0,1.027-0.126,1.26-0.379S185.128,272.044,185.128,271.679z M189.732,279.791c0-0.43-0.083-0.813-0.251-1.153
	c-0.166-0.338-0.409-0.603-0.728-0.792s-0.676-0.284-1.072-0.284c-0.605,0-1.1,0.202-1.482,0.605s-0.574,0.961-0.574,1.674
	c0,0.377,0.082,0.734,0.246,1.072s0.405,0.604,0.724,0.8s0.68,0.293,1.084,0.293c0.373,0,0.721-0.088,1.043-0.265
	s0.571-0.438,0.747-0.781S189.732,280.226,189.732,279.791z M190.258,273.712c0.164,0.338,0.405,0.604,0.724,0.8
	s0.68,0.293,1.084,0.293c0.373,0,0.721-0.088,1.043-0.265s0.571-0.438,0.747-0.781s0.264-0.733,0.264-1.169
	c0-0.43-0.083-0.813-0.251-1.153c-0.166-0.338-0.409-0.603-0.728-0.792s-0.676-0.284-1.072-0.284c-0.605,0-1.1,0.202-1.482,0.605
	s-0.574,0.961-0.574,1.674C190.012,273.017,190.094,273.375,190.258,273.712z M194.399,279.791c0-0.43-0.083-0.813-0.251-1.153
	c-0.166-0.338-0.409-0.603-0.728-0.792s-0.676-0.284-1.072-0.284c-0.605,0-1.1,0.202-1.482,0.605s-0.574,0.961-0.574,1.674
	c0,0.377,0.082,0.734,0.246,1.072s0.405,0.604,0.724,0.8s0.68,0.293,1.084,0.293c0.373,0,0.721-0.088,1.043-0.265
	s0.571-0.438,0.747-0.781S194.399,280.226,194.399,279.791z M194.529,270.944h1.415v3.788h0.568v-3.788h1.421v-0.507h-3.404V270.944
	z M198.214,277.637h-3.404v0.507h1.415v3.788h0.568v-3.788h1.421V277.637z M202.184,277.637h-0.568v1.764h-2.232v-1.764h-0.568
	v4.295h0.568v-2.024h2.232v2.024h0.568V277.637z M202.343,272.59c0-0.43-0.083-0.813-0.251-1.153
	c-0.166-0.338-0.409-0.603-0.728-0.792s-0.676-0.284-1.072-0.284c-0.605,0-1.1,0.202-1.482,0.605s-0.574,0.961-0.574,1.674
	c0,0.377,0.082,0.734,0.246,1.072s0.405,0.604,0.724,0.8s0.68,0.293,1.084,0.293c0.373,0,0.721-0.088,1.043-0.265
	s0.571-0.438,0.747-0.781S202.343,273.026,202.343,272.59z M201.061,271.066c-0.228-0.145-0.482-0.216-0.766-0.216
	c-0.402,0-0.748,0.139-1.039,0.415c-0.289,0.276-0.435,0.737-0.435,1.384c0,0.518,0.14,0.926,0.417,1.224
	c0.279,0.298,0.628,0.446,1.048,0.446c0.428,0,0.779-0.15,1.056-0.451s0.415-0.728,0.415-1.28c0-0.35-0.06-0.654-0.177-0.916
	C201.461,271.412,201.288,271.208,201.061,271.066z"/>
<path id="MENS_LOCKER_ROOM" fill="#014079" d="M157.284,339.405c-0.146,0.055-0.35,0.081-0.609,0.081h-1.222v-1.421h1.359
	c0.318,0,0.551,0.065,0.698,0.196s0.222,0.298,0.222,0.501c0,0.139-0.038,0.268-0.114,0.385
	C157.542,339.266,157.43,339.352,157.284,339.405z M166.528,338.219c-0.228-0.145-0.482-0.216-0.766-0.216
	c-0.402,0-0.748,0.139-1.039,0.415c-0.289,0.276-0.435,0.737-0.435,1.384c0,0.518,0.14,0.926,0.417,1.224
	c0.279,0.298,0.628,0.446,1.048,0.446c0.428,0,0.779-0.15,1.056-0.451s0.415-0.728,0.415-1.28c0-0.35-0.06-0.654-0.177-0.916
	C166.928,338.565,166.755,338.362,166.528,338.219z M161.861,338.219c-0.228-0.145-0.482-0.216-0.766-0.216
	c-0.402,0-0.748,0.139-1.039,0.415c-0.289,0.276-0.435,0.737-0.435,1.384c0,0.518,0.14,0.926,0.417,1.224
	c0.279,0.298,0.628,0.446,1.048,0.446c0.428,0,0.779-0.15,1.056-0.451s0.415-0.728,0.415-1.28c0-0.35-0.06-0.654-0.177-0.916
	C162.261,338.565,162.088,338.362,161.861,338.219z M157.86,331.019c-0.228-0.145-0.482-0.216-0.766-0.216
	c-0.402,0-0.748,0.139-1.039,0.415c-0.289,0.276-0.435,0.737-0.435,1.384c0,0.518,0.14,0.926,0.417,1.224
	c0.279,0.298,0.628,0.446,1.048,0.446c0.428,0,0.779-0.15,1.056-0.451s0.415-0.728,0.415-1.28c0-0.35-0.06-0.654-0.177-0.916
	C158.26,331.365,158.087,331.162,157.86,331.019z M179.745,310.391v42.883h-32v-42.883H179.745z M172.217,326.319
	c0,0.133-0.041,0.256-0.121,0.367c-0.082,0.113-0.205,0.201-0.371,0.266s-0.357,0.097-0.574,0.097c-0.244,0-0.464-0.042-0.659-0.128
	c-0.195-0.084-0.34-0.195-0.433-0.334c-0.093-0.137-0.151-0.313-0.177-0.528l-0.536,0.047c0.008,0.287,0.086,0.545,0.236,0.772
	c0.148,0.228,0.354,0.397,0.617,0.511s0.589,0.17,0.978,0.17c0.307,0,0.582-0.057,0.827-0.169c0.245-0.111,0.434-0.27,0.564-0.471
	c0.131-0.203,0.196-0.418,0.196-0.646c0-0.23-0.06-0.434-0.179-0.611c-0.119-0.176-0.304-0.322-0.554-0.438
	c-0.172-0.078-0.489-0.169-0.95-0.273c-0.463-0.104-0.748-0.207-0.857-0.307c-0.111-0.1-0.167-0.227-0.167-0.381
	c0-0.178,0.078-0.33,0.235-0.455c0.157-0.127,0.408-0.189,0.752-0.189c0.33,0,0.579,0.069,0.748,0.208s0.269,0.344,0.298,0.615
	l0.545-0.041c-0.01-0.252-0.08-0.478-0.211-0.677s-0.317-0.35-0.562-0.453c-0.242-0.102-0.523-0.153-0.842-0.153
	c-0.289,0-0.552,0.049-0.788,0.146s-0.416,0.241-0.539,0.429c-0.123,0.189-0.185,0.392-0.185,0.608c0,0.197,0.05,0.376,0.15,0.534
	c0.101,0.16,0.254,0.293,0.459,0.4c0.158,0.084,0.435,0.174,0.829,0.268c0.395,0.096,0.649,0.165,0.765,0.21
	c0.18,0.068,0.309,0.153,0.387,0.253C172.178,326.067,172.217,326.184,172.217,326.319z M165.854,332.13l1.802-1.74h-0.771
	l-2.133,2.13v-2.13h-0.568v4.295h0.568v-1.488l0.703-0.686l1.529,2.174h0.75L165.854,332.13z M163.868,327.485h0.545v-3.375
	l2.256,3.375h0.583v-4.295h-0.545v3.372l-2.256-3.372h-0.583V327.485z M159.883,327.485h3.205v-0.507h-2.637v-1.462h2.376v-0.504
	h-2.376v-1.315h2.537v-0.507h-3.105V327.485z M154.531,334.178h-2.115v-3.788h-0.568v4.295h2.684V334.178z M154.856,327.485h0.548
	v-3.656l1.242,3.656h0.513l1.248-3.595v3.595h0.548v-4.295h-0.765l-1.028,2.988c-0.104,0.303-0.18,0.532-0.229,0.688
	c-0.043-0.141-0.111-0.353-0.205-0.636l-1.017-3.041h-0.855V327.485z M158.669,341.885l-0.747-1.169
	c-0.148-0.229-0.306-0.419-0.472-0.571c-0.078-0.07-0.192-0.142-0.343-0.214c0.412-0.057,0.717-0.189,0.914-0.398
	s0.296-0.466,0.296-0.771c0-0.236-0.06-0.452-0.179-0.647s-0.278-0.331-0.478-0.409c-0.199-0.076-0.49-0.115-0.873-0.115h-1.904
	v4.295h0.568v-1.907h0.659c0.146,0,0.252,0.007,0.316,0.021c0.088,0.021,0.174,0.06,0.26,0.114c0.084,0.055,0.181,0.15,0.288,0.287
	s0.244,0.334,0.41,0.592l0.568,0.894H158.669z M158.878,333.712c0.176-0.344,0.264-0.733,0.264-1.169
	c0-0.43-0.083-0.813-0.251-1.153c-0.166-0.338-0.409-0.603-0.728-0.792s-0.676-0.284-1.072-0.284c-0.605,0-1.1,0.202-1.482,0.605
	s-0.574,0.961-0.574,1.674c0,0.377,0.082,0.734,0.246,1.072s0.405,0.604,0.724,0.8s0.68,0.293,1.084,0.293
	c0.373,0,0.721-0.088,1.043-0.265S158.703,334.056,158.878,333.712z M163.143,339.744c0-0.43-0.083-0.813-0.251-1.153
	c-0.166-0.338-0.409-0.603-0.728-0.792s-0.676-0.284-1.072-0.284c-0.605,0-1.1,0.202-1.482,0.605s-0.574,0.961-0.574,1.674
	c0,0.377,0.082,0.734,0.246,1.072s0.405,0.604,0.724,0.8s0.68,0.293,1.084,0.293c0.373,0,0.721-0.088,1.043-0.265
	s0.571-0.438,0.747-0.781S163.143,340.179,163.143,339.744z M163.507,333.323l-0.568-0.144c-0.078,0.361-0.228,0.634-0.448,0.817
	s-0.49,0.275-0.809,0.275c-0.262,0-0.505-0.067-0.729-0.202s-0.391-0.338-0.496-0.611c-0.107-0.271-0.16-0.591-0.16-0.956
	c0-0.283,0.045-0.558,0.135-0.825c0.09-0.266,0.245-0.479,0.467-0.637s0.498-0.237,0.828-0.237c0.287,0,0.525,0.071,0.715,0.214
	s0.334,0.37,0.434,0.683l0.56-0.132c-0.115-0.396-0.319-0.704-0.612-0.923s-0.654-0.328-1.084-0.328
	c-0.379,0-0.727,0.087-1.041,0.259c-0.316,0.174-0.56,0.427-0.73,0.76s-0.256,0.723-0.256,1.17c0,0.41,0.075,0.794,0.227,1.151
	s0.373,0.631,0.662,0.819c0.291,0.188,0.667,0.282,1.13,0.282c0.447,0,0.825-0.122,1.136-0.368
	C163.173,334.146,163.388,333.79,163.507,333.323z M167.81,339.744c0-0.43-0.083-0.813-0.251-1.153
	c-0.166-0.338-0.409-0.603-0.728-0.792s-0.676-0.284-1.072-0.284c-0.605,0-1.1,0.202-1.482,0.605s-0.574,0.961-0.574,1.674
	c0,0.377,0.082,0.734,0.246,1.072s0.405,0.604,0.724,0.8s0.68,0.293,1.084,0.293c0.373,0,0.721-0.088,1.043-0.265
	s0.571-0.438,0.747-0.781S167.81,340.179,167.81,339.744z M168.189,324.552c0.178-0.08,0.309-0.199,0.393-0.357
	c0.061-0.115,0.091-0.304,0.091-0.565v-0.483h-0.565v0.612h0.275c-0.006,0.162-0.035,0.29-0.086,0.383
	c-0.053,0.093-0.131,0.16-0.236,0.203L168.189,324.552z M168.221,334.685h3.205v-0.507h-2.637v-1.462h2.376v-0.504h-2.376v-1.315
	h2.537v-0.507h-3.105V334.685z M172.624,337.59h-0.765l-1.028,2.988c-0.104,0.303-0.18,0.532-0.229,0.688
	c-0.043-0.141-0.111-0.353-0.205-0.636l-1.017-3.041h-0.855v4.295h0.548v-3.656l1.242,3.656h0.513l1.248-3.595v3.595h0.548V337.59z
	 M176.005,334.685l-0.747-1.169c-0.148-0.229-0.306-0.419-0.472-0.571c-0.078-0.07-0.192-0.142-0.343-0.214
	c0.412-0.057,0.717-0.189,0.914-0.398s0.296-0.466,0.296-0.771c0-0.236-0.06-0.452-0.179-0.647s-0.278-0.331-0.478-0.409
	c-0.199-0.076-0.49-0.115-0.873-0.115h-1.904v4.295h0.568v-1.907h0.659c0.146,0,0.252,0.007,0.316,0.021
	c0.088,0.021,0.174,0.06,0.26,0.114c0.084,0.055,0.181,0.15,0.288,0.287s0.244,0.334,0.41,0.592l0.568,0.894H176.005z
	 M174.954,331.947c0.076-0.117,0.114-0.246,0.114-0.385c0-0.203-0.074-0.37-0.222-0.501s-0.38-0.196-0.698-0.196h-1.359v1.421h1.222
	c0.26,0,0.463-0.026,0.609-0.081C174.766,332.152,174.877,332.066,174.954,331.947z"/>
<path id="MED_ROOM" fill="#014079" d="M130.88,341.268c0.038,0.338-0.06,0.643-0.294,0.91c-0.229,0.266-0.515,0.402-0.854,0.415
	c-0.34,0.013-0.672-0.124-0.998-0.407c-0.406-0.353-0.617-0.695-0.633-1.029s0.088-0.627,0.309-0.879
	c0.154-0.179,0.34-0.301,0.554-0.365s0.436-0.062,0.665,0.006c0.229,0.068,0.453,0.199,0.672,0.39
	C130.649,340.61,130.842,340.93,130.88,341.268z M127.75,343.243c-0.22-0.191-0.444-0.32-0.672-0.389
	c-0.23-0.068-0.451-0.07-0.666-0.006c-0.214,0.064-0.398,0.186-0.554,0.363c-0.22,0.254-0.323,0.547-0.308,0.881
	c0.016,0.333,0.227,0.676,0.633,1.029c0.326,0.283,0.658,0.42,0.998,0.406c0.338-0.012,0.623-0.149,0.854-0.414
	c0.233-0.269,0.332-0.572,0.293-0.911C128.292,343.865,128.098,343.545,127.75,343.243z M124.497,345.743
	c-0.127-0.111-0.273-0.156-0.436-0.135c-0.163,0.021-0.332,0.132-0.506,0.332l-0.742,0.854l0.893,0.776l0.668-0.768
	c0.142-0.164,0.236-0.306,0.283-0.428c0.045-0.121,0.053-0.238,0.02-0.351C124.644,345.913,124.583,345.819,124.497,345.743z
	 M127.557,336.299c0.055-0.131,0.078-0.251,0.07-0.364c-0.011-0.158-0.067-0.323-0.17-0.495c-0.102-0.172-0.254-0.346-0.459-0.523
	c-0.281-0.246-0.539-0.389-0.771-0.428c-0.233-0.038-0.432-0.015-0.6,0.073c-0.119,0.063-0.271,0.203-0.457,0.415l-0.493,0.568
	l2.063,1.793l0.502-0.576C127.397,336.584,127.502,336.43,127.557,336.299z M141.399,341.916l-11.214,13.262l-17.72-14.976
	l11.214-13.263L141.399,341.916z M124.047,335.625l2.701,2.348l0.848-0.975c0.143-0.164,0.252-0.321,0.332-0.474
	c0.078-0.153,0.127-0.3,0.145-0.44s0.008-0.295-0.031-0.46s-0.117-0.34-0.232-0.526c-0.119-0.186-0.279-0.367-0.484-0.545
	c-0.24-0.21-0.485-0.36-0.734-0.453c-0.248-0.092-0.495-0.119-0.738-0.082c-0.189,0.029-0.369,0.105-0.538,0.229
	c-0.123,0.088-0.274,0.238-0.457,0.447L124.047,335.625z M121.866,338.135l2.701,2.348l1.753-2.016l-0.318-0.277l-1.441,1.658
	l-0.92-0.799l1.3-1.496l-0.317-0.275l-1.3,1.496l-0.826-0.719l1.387-1.596l-0.319-0.277L121.866,338.135z M122.119,343.299
	l-2.3-1.998l2.979,1.217l0.281-0.322l-1.58-2.75l2.262,1.965l0.3-0.344l-2.701-2.349l-0.419,0.481l1.318,2.279
	c0.133,0.231,0.235,0.404,0.307,0.521c-0.111-0.051-0.281-0.123-0.511-0.219l-2.469-1.023l-0.468,0.538l2.701,2.349L122.119,343.299
	z M126.973,346.86l-1.145-0.169c-0.224-0.031-0.43-0.036-0.616-0.015c-0.087,0.01-0.194,0.043-0.321,0.098
	c0.189-0.29,0.273-0.555,0.248-0.793c-0.023-0.238-0.131-0.439-0.322-0.607c-0.148-0.129-0.316-0.209-0.506-0.241
	c-0.188-0.031-0.359-0.005-0.518,0.077c-0.157,0.084-0.34,0.244-0.549,0.484l-1.042,1.199l2.701,2.348l0.312-0.357l-1.2-1.043
	l0.36-0.414c0.08-0.093,0.142-0.155,0.186-0.188c0.062-0.045,0.133-0.078,0.214-0.101c0.081-0.024,0.194-0.032,0.339-0.026
	c0.145,0.009,0.344,0.031,0.597,0.066l0.872,0.132L126.973,346.86z M128.665,343.68c-0.12-0.299-0.318-0.566-0.593-0.805
	c-0.27-0.234-0.557-0.393-0.86-0.473c-0.305-0.08-0.604-0.072-0.896,0.023c-0.293,0.098-0.549,0.271-0.766,0.521
	c-0.33,0.38-0.475,0.802-0.43,1.263c0.044,0.461,0.291,0.887,0.738,1.275c0.238,0.207,0.508,0.352,0.81,0.432
	c0.302,0.082,0.601,0.077,0.897-0.018c0.298-0.094,0.557-0.267,0.777-0.521c0.203-0.234,0.339-0.501,0.404-0.801
	C128.811,344.278,128.784,343.979,128.665,343.68z M131.215,340.745c-0.119-0.297-0.318-0.565-0.592-0.804
	c-0.27-0.235-0.557-0.393-0.861-0.474c-0.305-0.079-0.604-0.071-0.896,0.025c-0.293,0.096-0.549,0.27-0.766,0.52
	c-0.33,0.38-0.475,0.801-0.43,1.262s0.291,0.887,0.739,1.277c0.237,0.206,0.507,0.35,0.81,0.432
	c0.301,0.081,0.601,0.076,0.897-0.018c0.298-0.094,0.556-0.268,0.776-0.522c0.204-0.234,0.34-0.501,0.404-0.801
	S131.334,341.043,131.215,340.745z M132.042,336.463l2.262,1.966l0.299-0.345l-2.701-2.349l-0.418,0.481l1.317,2.28
	c0.134,0.231,0.235,0.404,0.308,0.521c-0.111-0.051-0.281-0.123-0.512-0.219l-2.469-1.023l-0.467,0.538l2.701,2.349l0.299-0.346
	l-2.299-1.998l2.979,1.217l0.279-0.322L132.042,336.463z"/>
<path id="MEALS" fill="#014079" d="M109.262,317.868c-0.238-0.418-0.506-0.811-0.799-1.175c0.368,0.165,0.855,0.353,1.464,0.565
	l1.999,0.702l-1.561,1.858L109.262,317.868z M139.265,299.377l-43.551,50.687l-13.823-11.871l43.55-50.687L139.265,299.377z
	 M106.525,328.969l-5.484-4.602l-0.818,0.977l2.713,4.514c0.276,0.457,0.487,0.8,0.635,1.029c-0.225-0.096-0.569-0.235-1.031-0.419
	l-4.973-1.96L96.65,329.6l5.484,4.602l0.586-0.699l-4.668-3.918l6,2.332l0.549-0.654l-3.253-5.445l4.59,3.852L106.525,328.969z
	 M110.954,323.691l-0.647-0.543l-2.824,3.366l-1.867-1.566l2.546-3.033l-0.644-0.539l-2.545,3.033l-1.68-1.41l2.718-3.238
	l-0.647-0.543l-3.326,3.965l5.483,4.601L110.954,323.691z M115.596,318.159l-7.367-2.357l-0.656,0.782l3.718,6.707l0.646-0.771
	l-1.155-1.996l1.924-2.293l2.197,0.754L115.596,318.159z M118.932,314.182l-0.646-0.543l-2.266,2.701l-4.837-4.059l-0.608,0.727
	l5.483,4.601L118.932,314.182z M122.179,308.844c-0.118-0.383-0.323-0.698-0.614-0.943c-0.295-0.246-0.619-0.389-0.971-0.426
	c-0.354-0.037-0.738,0.041-1.153,0.237c-0.283,0.136-0.739,0.442-1.368,0.921c-0.629,0.477-1.064,0.732-1.309,0.766
	c-0.246,0.035-0.469-0.029-0.666-0.194c-0.227-0.19-0.336-0.454-0.328-0.79s0.195-0.723,0.563-1.162
	c0.354-0.421,0.71-0.665,1.067-0.732c0.358-0.066,0.727,0.027,1.104,0.279l0.532-0.739c-0.333-0.257-0.696-0.409-1.09-0.456
	c-0.395-0.046-0.788,0.031-1.179,0.231c-0.393,0.2-0.758,0.505-1.1,0.911c-0.309,0.369-0.529,0.756-0.656,1.163
	c-0.129,0.405-0.139,0.789-0.029,1.147c0.107,0.359,0.301,0.655,0.578,0.887c0.252,0.212,0.533,0.338,0.845,0.381
	c0.31,0.042,0.644-0.01,1.001-0.156c0.276-0.113,0.688-0.37,1.23-0.771c0.543-0.402,0.905-0.654,1.086-0.753
	c0.28-0.155,0.526-0.229,0.738-0.222c0.211,0.008,0.404,0.084,0.576,0.229c0.17,0.143,0.283,0.325,0.34,0.549
	c0.057,0.225,0.036,0.477-0.06,0.758c-0.095,0.28-0.259,0.56-0.491,0.836c-0.262,0.312-0.553,0.547-0.869,0.706
	c-0.318,0.157-0.614,0.222-0.889,0.193c-0.276-0.029-0.564-0.142-0.865-0.341l-0.515,0.735c0.374,0.298,0.788,0.472,1.237,0.526
	c0.451,0.053,0.89-0.027,1.316-0.242c0.426-0.215,0.847-0.569,1.263-1.065c0.329-0.392,0.552-0.804,0.673-1.237
	C122.296,309.635,122.297,309.227,122.179,308.844z"/>
<path id="MAIN_STAGE" fill="#F37021" d="M147.208,230.033c-0.452-0.166-0.908-0.295-1.367-0.386c0.388-0.11,0.882-0.28,1.484-0.508
	l1.982-0.747v2.427L147.208,230.033z M163.745,169.69v82.75H132.75v-82.75H163.745z M145.089,186.146h7.158v-5.342h-0.845v4.395
	h-2.437v-3.96h-0.84v3.96h-2.192v-4.229h-0.845V186.146z M152.247,233.626h-7.158v1.274l4.98,1.714
	c0.505,0.173,0.887,0.3,1.147,0.381c-0.234,0.071-0.588,0.186-1.06,0.342l-5.068,1.694v1.426h7.158v-0.913h-6.094l6.094-2.07v-0.854
	l-5.991-2.08h5.991V233.626z M152.247,226.185l-7.158,2.93v1.021l7.158,2.749v-1.006l-2.168-0.786v-2.993l2.168-0.835V226.185z
	 M152.247,224.32h-7.158v0.947h7.158V224.32z M152.247,217.02h-7.158v0.908h5.62l-5.62,3.76v0.972h7.158v-0.908h-5.625l5.625-3.76
	V217.02z M152.369,209.92c0-0.511-0.094-0.971-0.28-1.38c-0.188-0.408-0.449-0.722-0.787-0.939
	c-0.336-0.218-0.695-0.327-1.076-0.327c-0.384,0-0.724,0.1-1.018,0.298c-0.295,0.198-0.538,0.506-0.73,0.923
	c-0.13,0.286-0.282,0.814-0.457,1.585c-0.174,0.77-0.344,1.245-0.51,1.428c-0.166,0.186-0.378,0.278-0.635,0.278
	c-0.296,0-0.549-0.131-0.76-0.394c-0.209-0.262-0.314-0.679-0.314-1.252c0-0.55,0.115-0.966,0.347-1.248
	c0.231-0.281,0.573-0.446,1.025-0.495l-0.068-0.908c-0.42,0.017-0.796,0.134-1.128,0.352s-0.584,0.53-0.754,0.935
	c-0.172,0.406-0.257,0.874-0.257,1.404c0,0.481,0.081,0.92,0.244,1.313s0.401,0.693,0.716,0.898
	c0.313,0.205,0.651,0.308,1.013,0.308c0.329,0,0.626-0.084,0.892-0.252c0.265-0.167,0.487-0.422,0.666-0.764
	c0.14-0.264,0.289-0.725,0.447-1.382c0.157-0.657,0.273-1.082,0.349-1.274c0.114-0.3,0.255-0.515,0.423-0.645
	c0.167-0.13,0.363-0.195,0.588-0.195c0.222,0,0.426,0.067,0.613,0.203c0.187,0.135,0.334,0.341,0.441,0.617s0.161,0.596,0.161,0.957
	c0,0.407-0.071,0.773-0.212,1.099c-0.143,0.325-0.328,0.565-0.557,0.72c-0.23,0.155-0.523,0.254-0.882,0.296l0.078,0.894
	c0.479-0.013,0.907-0.145,1.286-0.393c0.38-0.25,0.664-0.593,0.853-1.031C152.274,211.111,152.369,210.568,152.369,209.92z
	 M150.079,199.608v-2.993l2.168-0.835v-1.079l-7.158,2.93v1.021l7.158,2.749v-1.006L150.079,199.608z M145.089,200.843v5.674h0.845
	v-2.358h6.313v-0.947h-6.313v-2.368H145.089z M152.369,190.526c0-0.521-0.094-1.028-0.28-1.523c-0.188-0.495-0.467-0.975-0.838-1.44
	h-2.656l0.005,3.032h0.84v-2.104h1.333c0.179,0.202,0.348,0.498,0.506,0.889c0.157,0.391,0.236,0.791,0.236,1.201
	c0,0.472-0.104,0.918-0.312,1.338s-0.527,0.739-0.957,0.96c-0.43,0.219-0.964,0.329-1.602,0.329c-0.518,0-0.998-0.091-1.44-0.273
	c-0.257-0.107-0.493-0.258-0.708-0.452c-0.215-0.193-0.389-0.448-0.52-0.764c-0.133-0.315-0.198-0.69-0.198-1.123
	c0-0.361,0.062-0.69,0.188-0.986c0.125-0.296,0.292-0.524,0.5-0.684s0.495-0.293,0.859-0.4l-0.234-0.854
	c-0.481,0.124-0.872,0.305-1.172,0.542s-0.533,0.565-0.701,0.984c-0.167,0.418-0.251,0.886-0.251,1.403
	c0,0.713,0.146,1.343,0.439,1.89s0.741,0.966,1.345,1.258c0.604,0.291,1.255,0.437,1.951,0.437c0.703,0,1.34-0.146,1.909-0.439
	s1.005-0.727,1.306-1.302C152.219,191.868,152.369,191.229,152.369,190.526z M145.841,198.163c0.459,0.091,0.915,0.22,1.367,0.386
	l2.1,0.786v-2.427l-1.982,0.747C146.723,197.882,146.229,198.052,145.841,198.163z"/>
<path id="JAIL_BREAK" fill="#014079" d="M252.624,138.445l0.448,1.189h-1.456l0.472-1.26c0.1-0.271,0.177-0.545,0.231-0.82
	C252.386,137.787,252.487,138.084,252.624,138.445z M245.736,146.687c-0.146-0.047-0.354-0.071-0.628-0.071h-0.993v1.477h1.069
	c0.184,0,0.312-0.007,0.387-0.021c0.131-0.023,0.24-0.062,0.328-0.117s0.16-0.134,0.217-0.238s0.085-0.226,0.085-0.362
	c0-0.16-0.041-0.299-0.123-0.417S245.882,146.735,245.736,146.687z M245.586,146.059c0.145-0.043,0.254-0.114,0.326-0.214
	c0.074-0.1,0.11-0.225,0.11-0.375c0-0.143-0.034-0.268-0.103-0.377c-0.068-0.107-0.166-0.182-0.293-0.223
	c-0.127-0.039-0.345-0.06-0.653-0.06h-0.858v1.298h0.929C245.296,146.108,245.477,146.092,245.586,146.059z M250.314,145.86
	c0.076-0.117,0.114-0.246,0.114-0.385c0-0.203-0.074-0.37-0.222-0.501s-0.38-0.196-0.698-0.196h-1.359v1.421h1.222
	c0.26,0,0.463-0.026,0.609-0.081C250.127,146.065,250.238,145.979,250.314,145.86z M275.745,129.33v27.227h-44.937V129.33H275.745z
	 M256.494,141.398h2.684v-0.507h-2.115v-3.788h-0.568V141.398z M254.947,141.398h0.568v-4.295h-0.568V141.398z M246.79,147.354
	c0-0.25-0.07-0.467-0.21-0.65s-0.339-0.313-0.599-0.39c0.201-0.1,0.352-0.23,0.451-0.393s0.149-0.335,0.149-0.519
	c0-0.197-0.057-0.386-0.168-0.567c-0.113-0.18-0.269-0.313-0.467-0.4s-0.461-0.131-0.789-0.131h-1.611v4.295h1.638
	c0.273,0,0.504-0.023,0.692-0.072c0.188-0.047,0.346-0.118,0.471-0.212s0.23-0.228,0.314-0.399
	C246.748,147.741,246.79,147.555,246.79,147.354z M247.559,140.18c-0.008,0.428,0.088,0.75,0.288,0.967s0.489,0.325,0.866,0.325
	c0.254,0,0.475-0.052,0.663-0.155s0.326-0.254,0.414-0.451c0.086-0.197,0.13-0.476,0.13-0.835v-2.927h-0.568v2.959
	c0,0.246-0.02,0.426-0.059,0.537c-0.039,0.113-0.11,0.202-0.214,0.268s-0.227,0.098-0.369,0.098c-0.193,0-0.345-0.061-0.454-0.182
	s-0.171-0.346-0.185-0.674L247.559,140.18z M251.366,148.599l-0.747-1.169c-0.148-0.229-0.306-0.419-0.472-0.571
	c-0.078-0.07-0.192-0.142-0.343-0.214c0.412-0.057,0.717-0.189,0.914-0.398s0.296-0.466,0.296-0.771c0-0.236-0.06-0.452-0.179-0.647
	s-0.278-0.331-0.478-0.409c-0.199-0.076-0.49-0.115-0.873-0.115h-1.904v4.295h0.568v-1.907h0.659c0.146,0,0.252,0.007,0.316,0.021
	c0.088,0.021,0.174,0.06,0.26,0.114c0.084,0.055,0.181,0.15,0.288,0.287s0.244,0.334,0.41,0.592l0.568,0.894H251.366z
	 M251.452,140.098h1.796l0.501,1.301h0.647l-1.758-4.295h-0.612l-1.649,4.295h0.604L251.452,140.098z M255.122,148.092h-2.637
	v-1.462h2.376v-0.504h-2.376v-1.315h2.537v-0.507h-3.105v4.295h3.205V148.092z M259.455,148.599l-1.758-4.295h-0.612l-1.649,4.295
	h0.604l0.472-1.301h1.796l0.501,1.301H259.455z M263.437,148.599l-1.881-2.555l1.802-1.74h-0.771l-2.133,2.13v-2.13h-0.568v4.295
	h0.568v-1.488l0.703-0.686l1.529,2.174H263.437z M257.378,144.755c-0.055,0.275-0.132,0.549-0.231,0.82l-0.472,1.26h1.456
	l-0.448-1.189C257.546,145.284,257.444,144.987,257.378,144.755z"/>
<path id="HOSPITALITY_CORNER" fill="#014079" d="M150.123,269.87c-0.06,0.23-0.183,0.459-0.366,0.686
	c-0.29,0.357-0.603,0.562-0.938,0.611c-0.337,0.051-0.645-0.037-0.921-0.26c-0.272-0.221-0.42-0.502-0.443-0.84
	c-0.024-0.34,0.1-0.676,0.371-1.012c0.338-0.418,0.674-0.641,1.007-0.668c0.333-0.027,0.629,0.066,0.89,0.277
	c0.184,0.148,0.312,0.328,0.384,0.541C150.177,269.417,150.183,269.637,150.123,269.87z M160.276,270.485
	c0.101-0.305,0.191-0.551,0.27-0.736c-0.18,0.15-0.373,0.287-0.581,0.41L159,270.727l0.942,0.764L160.276,270.485z M173.188,275.927
	l-9.103,11.892l-27.765-21.242l9.103-11.892L173.188,275.927z M160.593,269.303l-3.321,1.916l0.392,0.316l0.987-0.596l1.163,0.941
	l-0.357,1.107l0.418,0.338l1.114-3.703L160.593,269.303z M157.27,267.157l0.917,0.742l-1.986,2.453l0.367,0.297l1.986-2.453
	l0.92,0.746l0.266-0.33l-2.205-1.785L157.27,267.157z M156.728,266.174l-2.252,2.781l0.368,0.297l2.252-2.781L156.728,266.174z
	 M154.073,264.024l-2.252,2.781l0.368,0.299l0.916-1.131l0.713,0.578c0.393,0.318,0.731,0.457,1.015,0.414s0.52-0.182,0.712-0.418
	c0.112-0.139,0.186-0.287,0.223-0.447c0.038-0.162,0.036-0.311-0.004-0.449c-0.041-0.139-0.121-0.275-0.239-0.408
	c-0.083-0.096-0.217-0.219-0.401-0.369L154.073,264.024z M151.684,265.065c-0.002,0.107-0.039,0.203-0.109,0.291
	c-0.07,0.086-0.161,0.145-0.272,0.174c-0.111,0.031-0.237,0.023-0.378-0.023c-0.142-0.045-0.283-0.123-0.423-0.236
	c-0.158-0.129-0.278-0.271-0.359-0.43c-0.083-0.158-0.117-0.305-0.105-0.441c0.013-0.139,0.066-0.285,0.163-0.438l-0.372-0.25
	c-0.146,0.191-0.229,0.398-0.253,0.623c-0.022,0.227,0.022,0.445,0.132,0.656c0.111,0.211,0.292,0.418,0.544,0.621
	c0.199,0.162,0.407,0.271,0.625,0.326c0.217,0.055,0.421,0.053,0.612-0.01s0.346-0.168,0.466-0.314
	c0.121-0.15,0.189-0.312,0.205-0.49c0.015-0.178-0.027-0.369-0.13-0.574c-0.069-0.141-0.227-0.367-0.471-0.676
	c-0.245-0.311-0.376-0.527-0.395-0.648c-0.02-0.123,0.011-0.234,0.092-0.334c0.094-0.115,0.224-0.172,0.392-0.172
	c0.168,0.002,0.363,0.092,0.586,0.271c0.214,0.174,0.339,0.35,0.375,0.529c0.037,0.178-0.006,0.363-0.13,0.553l0.375,0.26
	c0.126-0.168,0.198-0.352,0.219-0.549c0.02-0.197-0.022-0.393-0.126-0.588c-0.104-0.193-0.258-0.375-0.464-0.541
	c-0.188-0.152-0.383-0.258-0.587-0.318s-0.396-0.062-0.574-0.004c-0.18,0.057-0.325,0.156-0.438,0.295
	c-0.104,0.129-0.165,0.271-0.183,0.428s0.011,0.32,0.087,0.498c0.058,0.139,0.19,0.34,0.396,0.609
	c0.205,0.268,0.334,0.447,0.385,0.537C151.646,264.836,151.686,264.959,151.684,265.065z M148.442,260.032
	c-0.459,0.059-0.876,0.32-1.25,0.783c-0.198,0.244-0.332,0.518-0.403,0.822c-0.07,0.305-0.055,0.604,0.049,0.896
	c0.104,0.295,0.287,0.547,0.548,0.76c0.241,0.195,0.513,0.32,0.814,0.375c0.302,0.055,0.6,0.016,0.894-0.113
	c0.294-0.131,0.555-0.338,0.783-0.621c0.225-0.277,0.373-0.568,0.442-0.877c0.069-0.307,0.051-0.605-0.055-0.895
	c-0.107-0.289-0.289-0.539-0.546-0.746C149.328,260.098,148.901,259.969,148.442,260.032z M143.78,260.293l1.062-1.311l1.446,1.17
	l-1.062,1.312l0.368,0.297l2.252-2.781l-0.368-0.297l-0.925,1.141l-1.446-1.17l0.925-1.143l-0.368-0.299l-2.252,2.783
	L143.78,260.293z M144.677,267.426c0.074-0.232,0.207-0.467,0.398-0.703c0.148-0.184,0.322-0.338,0.52-0.463
	c0.199-0.127,0.411-0.182,0.637-0.168c0.227,0.014,0.446,0.107,0.661,0.281c0.186,0.15,0.303,0.32,0.351,0.512
	c0.048,0.193,0.022,0.416-0.077,0.67l0.431,0.207c0.133-0.316,0.164-0.623,0.088-0.918c-0.076-0.295-0.251-0.555-0.53-0.781
	c-0.245-0.197-0.516-0.324-0.811-0.377c-0.295-0.055-0.584-0.018-0.87,0.107c-0.286,0.127-0.546,0.334-0.781,0.625
	c-0.215,0.266-0.367,0.555-0.456,0.863c-0.09,0.312-0.09,0.604-0.001,0.879c0.089,0.273,0.283,0.531,0.583,0.773
	c0.29,0.234,0.599,0.355,0.927,0.359c0.329,0.002,0.655-0.115,0.977-0.355l-0.293-0.391c-0.24,0.193-0.479,0.291-0.718,0.293
	c-0.24,0.004-0.463-0.078-0.669-0.244c-0.17-0.137-0.292-0.309-0.366-0.514C144.604,267.877,144.604,267.659,144.677,267.426z
	 M149.352,271.483c0.294-0.129,0.555-0.336,0.783-0.619c0.225-0.277,0.373-0.57,0.442-0.877c0.069-0.307,0.051-0.605-0.055-0.895
	c-0.107-0.291-0.289-0.539-0.546-0.748c-0.392-0.316-0.817-0.445-1.276-0.385c-0.459,0.061-0.876,0.322-1.25,0.783
	c-0.198,0.244-0.332,0.52-0.403,0.824s-0.055,0.604,0.049,0.896c0.104,0.293,0.286,0.545,0.548,0.758
	c0.242,0.195,0.513,0.322,0.814,0.375C148.76,271.651,149.058,271.614,149.352,271.483z M152.073,273.475
	c0.023-0.225,0.021-0.432-0.006-0.617c-0.013-0.086-0.05-0.191-0.109-0.318c0.297,0.18,0.563,0.254,0.801,0.223
	c0.237-0.033,0.436-0.146,0.595-0.344c0.125-0.154,0.199-0.324,0.225-0.514c0.024-0.189-0.007-0.361-0.096-0.516
	c-0.088-0.154-0.256-0.332-0.503-0.531l-1.234-1l-2.252,2.781l0.369,0.299l1-1.234l0.427,0.344c0.095,0.078,0.16,0.137,0.193,0.18
	c0.046,0.061,0.082,0.131,0.108,0.211c0.027,0.08,0.039,0.191,0.038,0.336c-0.003,0.146-0.018,0.346-0.045,0.6l-0.101,0.877
	l0.463,0.375L152.073,273.475z M154.481,276.68l2.252-2.781l-0.354-0.287l-1.768,2.184l0.308-3.365l-0.378-0.307l-2.252,2.781
	l0.353,0.285l1.77-2.186l-0.309,3.369L154.481,276.68z M157.447,278.54l-1.708-1.383l0.767-0.947l1.539,1.246l0.264-0.326
	l-1.539-1.246l0.689-0.852l1.643,1.33l0.266-0.328l-2.011-1.629l-2.252,2.781l2.076,1.682L157.447,278.54z M161.782,278.547
	c0.024-0.188-0.007-0.359-0.096-0.514c-0.088-0.154-0.256-0.332-0.503-0.533l-1.234-0.998l-2.252,2.781l0.369,0.299l1-1.236
	l0.427,0.346c0.095,0.076,0.16,0.137,0.193,0.18c0.046,0.059,0.082,0.129,0.108,0.209c0.027,0.08,0.039,0.193,0.038,0.338
	c-0.003,0.145-0.018,0.346-0.045,0.6l-0.101,0.875l0.463,0.375l0.13-1.148c0.023-0.227,0.021-0.432-0.006-0.617
	c-0.013-0.086-0.05-0.193-0.109-0.318c0.297,0.18,0.563,0.254,0.801,0.221c0.237-0.031,0.436-0.146,0.595-0.344
	C161.682,278.909,161.756,278.737,161.782,278.547z M162.158,274.633l-1.37-1.109l1.987-2.455l-0.368-0.297l-2.252,2.781
	l1.738,1.408L162.158,274.633z M165.013,272.881l-0.367-0.297l-2.252,2.781l0.367,0.299L165.013,272.881z M166.472,274.608
	l0.92,0.746l0.266-0.33l-2.205-1.785l-0.266,0.328l0.917,0.744l-1.986,2.453l0.367,0.297L166.472,274.608z M167.888,277.866
	l2.409-0.705l-0.429-0.346l-1.2,0.381c-0.267,0.086-0.5,0.168-0.702,0.246c0.04-0.229,0.073-0.461,0.099-0.699l0.13-1.283
	l-0.448-0.363l-0.226,2.473l-0.954,1.178l0.367,0.297L167.888,277.866z M152.698,272.301c0.111-0.037,0.204-0.102,0.276-0.191
	c0.106-0.131,0.147-0.277,0.12-0.439s-0.144-0.326-0.35-0.494l-0.88-0.713l-0.745,0.92l0.791,0.641
	c0.168,0.137,0.313,0.227,0.436,0.268C152.469,272.334,152.586,272.336,152.698,272.301z M160.068,277.108l-0.745,0.92l0.791,0.641
	c0.168,0.137,0.313,0.225,0.436,0.268c0.123,0.041,0.24,0.045,0.352,0.008s0.204-0.1,0.276-0.189
	c0.106-0.131,0.147-0.279,0.12-0.439c-0.026-0.164-0.144-0.328-0.349-0.494L160.068,277.108z M154.704,266.504
	c0.172-0.008,0.322-0.092,0.452-0.254c0.094-0.115,0.146-0.238,0.154-0.369c0.009-0.131-0.024-0.248-0.099-0.352
	c-0.049-0.068-0.157-0.168-0.324-0.303l-0.712-0.576l-0.805,0.994l0.72,0.582C154.327,266.42,154.532,266.51,154.704,266.504z
	 M147.64,262.977c0.276,0.225,0.584,0.311,0.921,0.262c0.336-0.049,0.649-0.254,0.939-0.613c0.184-0.225,0.306-0.455,0.365-0.686
	c0.061-0.23,0.055-0.451-0.017-0.664c-0.072-0.211-0.2-0.393-0.383-0.541c-0.26-0.211-0.557-0.303-0.89-0.277
	c-0.333,0.027-0.668,0.252-1.007,0.67c-0.271,0.334-0.396,0.672-0.372,1.01C147.22,262.477,147.368,262.756,147.64,262.977z"/>
<path id="HOBBY_CORNER" fill="#014079" d="M192.315,140.534c-0.276,0.301-0.628,0.451-1.056,0.451c-0.42,0-0.769-0.148-1.048-0.446
	c-0.277-0.298-0.417-0.706-0.417-1.224c0-0.646,0.146-1.107,0.435-1.384c0.291-0.276,0.637-0.415,1.039-0.415
	c0.283,0,0.538,0.071,0.766,0.216c0.228,0.143,0.4,0.346,0.52,0.605c0.117,0.262,0.177,0.566,0.177,0.916
	C192.73,139.807,192.591,140.233,192.315,140.534z M200.596,140.516c0.057-0.104,0.085-0.226,0.085-0.362
	c0-0.16-0.041-0.299-0.123-0.417s-0.196-0.201-0.342-0.25c-0.146-0.047-0.354-0.071-0.628-0.071h-0.993v1.477h1.069
	c0.184,0,0.312-0.007,0.387-0.021c0.131-0.023,0.24-0.062,0.328-0.117S200.54,140.62,200.596,140.516z M200.066,138.858
	c0.145-0.043,0.254-0.114,0.326-0.214c0.074-0.1,0.11-0.225,0.11-0.375c0-0.143-0.034-0.268-0.103-0.377
	c-0.068-0.107-0.166-0.182-0.293-0.223c-0.127-0.039-0.345-0.06-0.653-0.06h-0.858v1.298h0.929
	C199.776,138.908,199.957,138.892,200.066,138.858z M189.483,144.933c-0.228-0.145-0.482-0.216-0.766-0.216
	c-0.402,0-0.748,0.139-1.039,0.415c-0.289,0.276-0.435,0.737-0.435,1.384c0,0.518,0.14,0.926,0.417,1.224
	c0.279,0.298,0.628,0.446,1.048,0.446c0.428,0,0.779-0.15,1.056-0.451s0.415-0.728,0.415-1.28c0-0.35-0.06-0.654-0.177-0.916
	C189.883,145.278,189.71,145.075,189.483,144.933z M196.064,138.858c0.145-0.043,0.254-0.114,0.326-0.214
	c0.074-0.1,0.11-0.225,0.11-0.375c0-0.143-0.034-0.268-0.103-0.377c-0.068-0.107-0.166-0.182-0.293-0.223
	c-0.127-0.039-0.345-0.06-0.653-0.06h-0.858v1.298h0.929C195.774,138.908,195.955,138.892,196.064,138.858z M228.085,129.33v27.908
	h-65.362V129.33H228.085z M185.066,141.398h0.568v-2.024h2.232v2.024h0.568v-4.295h-0.568v1.764h-2.232v-1.764h-0.568V141.398z
	 M186.13,147.236l-0.568-0.144c-0.078,0.361-0.228,0.634-0.448,0.817s-0.49,0.275-0.809,0.275c-0.262,0-0.505-0.067-0.729-0.202
	s-0.391-0.338-0.496-0.611c-0.107-0.271-0.16-0.591-0.16-0.956c0-0.283,0.045-0.558,0.135-0.825c0.09-0.266,0.245-0.479,0.467-0.637
	s0.498-0.237,0.828-0.237c0.287,0,0.525,0.071,0.715,0.214s0.334,0.37,0.434,0.683l0.56-0.132c-0.115-0.396-0.319-0.704-0.612-0.923
	s-0.654-0.328-1.084-0.328c-0.379,0-0.727,0.087-1.041,0.259c-0.316,0.174-0.56,0.427-0.73,0.76s-0.256,0.723-0.256,1.17
	c0,0.41,0.075,0.794,0.227,1.151s0.373,0.631,0.662,0.819c0.291,0.188,0.667,0.282,1.13,0.282c0.447,0,0.825-0.122,1.136-0.368
	C185.796,148.06,186.011,147.703,186.13,147.236z M190.765,146.457c0-0.43-0.083-0.813-0.251-1.153
	c-0.166-0.338-0.409-0.603-0.728-0.792s-0.676-0.284-1.072-0.284c-0.605,0-1.1,0.202-1.482,0.605s-0.574,0.961-0.574,1.674
	c0,0.377,0.082,0.734,0.246,1.072s0.405,0.604,0.724,0.8s0.68,0.293,1.084,0.293c0.373,0,0.721-0.088,1.043-0.265
	s0.571-0.438,0.747-0.781S190.765,146.893,190.765,146.457z M191.262,141.472c0.373,0,0.721-0.088,1.043-0.265
	s0.571-0.438,0.747-0.781s0.264-0.733,0.264-1.169c0-0.43-0.083-0.813-0.251-1.153c-0.166-0.338-0.409-0.603-0.728-0.792
	s-0.676-0.284-1.072-0.284c-0.605,0-1.1,0.202-1.482,0.605s-0.574,0.961-0.574,1.674c0,0.377,0.082,0.734,0.246,1.072
	s0.405,0.604,0.724,0.8S190.858,141.472,191.262,141.472z M195.292,148.599l-0.747-1.169c-0.148-0.229-0.306-0.419-0.472-0.571
	c-0.078-0.07-0.192-0.142-0.343-0.214c0.412-0.057,0.717-0.189,0.914-0.398s0.296-0.466,0.296-0.771c0-0.236-0.06-0.452-0.179-0.647
	s-0.278-0.331-0.478-0.409c-0.199-0.076-0.49-0.115-0.873-0.115h-1.904v4.295h0.568v-1.907h0.659c0.146,0,0.252,0.007,0.316,0.021
	c0.088,0.021,0.174,0.06,0.26,0.114c0.084,0.055,0.181,0.15,0.288,0.287s0.244,0.334,0.41,0.592l0.568,0.894H195.292z
	 M195.663,141.398c0.273,0,0.504-0.023,0.692-0.072c0.188-0.047,0.346-0.118,0.471-0.212s0.23-0.228,0.314-0.399
	c0.086-0.174,0.128-0.36,0.128-0.562c0-0.25-0.07-0.467-0.21-0.65s-0.339-0.313-0.599-0.39c0.201-0.1,0.352-0.23,0.451-0.393
	s0.149-0.335,0.149-0.519c0-0.197-0.057-0.386-0.168-0.567c-0.113-0.18-0.269-0.313-0.467-0.4s-0.461-0.131-0.789-0.131h-1.611
	v4.295H195.663z M199.208,144.304h-0.545v3.372l-2.256-3.372h-0.583v4.295h0.545v-3.375l2.256,3.375h0.583V144.304z
	 M199.665,141.398c0.273,0,0.504-0.023,0.692-0.072c0.188-0.047,0.346-0.118,0.471-0.212s0.23-0.228,0.314-0.399
	c0.086-0.174,0.128-0.36,0.128-0.562c0-0.25-0.07-0.467-0.21-0.65s-0.339-0.313-0.599-0.39c0.201-0.1,0.352-0.23,0.451-0.393
	s0.149-0.335,0.149-0.519c0-0.197-0.057-0.386-0.168-0.567c-0.113-0.18-0.269-0.313-0.467-0.4s-0.461-0.131-0.789-0.131h-1.611
	v4.295H199.665z M203.38,148.092h-2.637v-1.462h2.376v-0.504h-2.376v-1.315h2.537v-0.507h-3.105v4.295h3.205V148.092z
	 M203.831,139.579l1.714-2.476h-0.662l-0.832,1.263c-0.184,0.281-0.34,0.534-0.469,0.759c-0.135-0.242-0.28-0.484-0.437-0.727
	l-0.847-1.295h-0.691l1.655,2.476v1.819h0.568V139.579z M207.959,148.599l-0.747-1.169c-0.148-0.229-0.306-0.419-0.472-0.571
	c-0.078-0.07-0.192-0.142-0.343-0.214c0.412-0.057,0.717-0.189,0.914-0.398s0.296-0.466,0.296-0.771c0-0.236-0.06-0.452-0.179-0.647
	s-0.278-0.331-0.478-0.409c-0.199-0.076-0.49-0.115-0.873-0.115h-1.904v4.295h0.568v-1.907h0.659c0.146,0,0.252,0.007,0.316,0.021
	c0.088,0.021,0.174,0.06,0.26,0.114c0.084,0.055,0.181,0.15,0.288,0.287s0.244,0.334,0.41,0.592l0.568,0.894H207.959z
	 M206.908,145.86c0.076-0.117,0.114-0.246,0.114-0.385c0-0.203-0.074-0.37-0.222-0.501s-0.38-0.196-0.698-0.196h-1.359v1.421h1.222
	c0.26,0,0.463-0.026,0.609-0.081C206.72,146.065,206.832,145.979,206.908,145.86z M196.594,140.516
	c0.057-0.104,0.085-0.226,0.085-0.362c0-0.16-0.041-0.299-0.123-0.417s-0.196-0.201-0.342-0.25
	c-0.146-0.047-0.354-0.071-0.628-0.071h-0.993v1.477h1.069c0.184,0,0.312-0.007,0.387-0.021c0.131-0.023,0.24-0.062,0.328-0.117
	S196.538,140.62,196.594,140.516z M194.24,145.86c0.076-0.117,0.114-0.246,0.114-0.385c0-0.203-0.074-0.37-0.222-0.501
	s-0.38-0.196-0.698-0.196h-1.359v1.421h1.222c0.26,0,0.463-0.026,0.609-0.081C194.052,146.065,194.164,145.979,194.24,145.86z"/>
<path id="BBALL_HOOPS" fill="#014079" d="M311.263,272.242h-0.929v-1.298h0.858c0.309,0,0.526,0.021,0.653,0.06
	c0.127,0.041,0.225,0.115,0.293,0.223c0.068,0.109,0.103,0.234,0.103,0.377c0,0.15-0.036,0.275-0.11,0.375
	c-0.072,0.1-0.182,0.171-0.326,0.214C311.695,272.225,311.515,272.242,311.263,272.242z M315.832,278.266
	c-0.228-0.145-0.482-0.216-0.766-0.216c-0.402,0-0.748,0.139-1.039,0.415c-0.289,0.276-0.435,0.737-0.435,1.384
	c0,0.518,0.14,0.926,0.417,1.224c0.279,0.298,0.628,0.446,1.048,0.446c0.428,0,0.779-0.15,1.056-0.451s0.415-0.728,0.415-1.28
	c0-0.35-0.06-0.654-0.177-0.916C316.232,278.612,316.06,278.409,315.832,278.266z M311.955,272.82
	c-0.146-0.047-0.354-0.071-0.628-0.071h-0.993v1.477h1.069c0.184,0,0.312-0.007,0.387-0.021c0.131-0.023,0.24-0.062,0.328-0.117
	s0.16-0.134,0.217-0.238s0.085-0.226,0.085-0.362c0-0.16-0.041-0.299-0.123-0.417S312.101,272.869,311.955,272.82z M307.803,272.192
	c0.145-0.043,0.254-0.114,0.326-0.214c0.074-0.1,0.11-0.225,0.11-0.375c0-0.143-0.034-0.268-0.103-0.377
	c-0.068-0.107-0.166-0.182-0.293-0.223c-0.127-0.039-0.345-0.06-0.653-0.06h-0.858v1.298h0.929
	C307.513,272.242,307.693,272.225,307.803,272.192z M307.953,272.82c-0.146-0.047-0.354-0.071-0.628-0.071h-0.993v1.477h1.069
	c0.184,0,0.312-0.007,0.387-0.021c0.131-0.023,0.24-0.062,0.328-0.117s0.16-0.134,0.217-0.238s0.085-0.226,0.085-0.362
	c0-0.16-0.041-0.299-0.123-0.417S308.099,272.869,307.953,272.82z M311.165,278.266c-0.228-0.145-0.482-0.216-0.766-0.216
	c-0.402,0-0.748,0.139-1.039,0.415c-0.289,0.276-0.435,0.737-0.435,1.384c0,0.518,0.14,0.926,0.417,1.224
	c0.279,0.298,0.628,0.446,1.048,0.446c0.428,0,0.779-0.15,1.056-0.451s0.415-0.728,0.415-1.28c0-0.35-0.06-0.654-0.177-0.916
	C311.565,278.612,311.393,278.409,311.165,278.266z M315.262,270.888c-0.055,0.275-0.132,0.549-0.231,0.82l-0.472,1.26h1.456
	l-0.448-1.189C315.43,271.417,315.328,271.121,315.262,270.888z M320.044,278.182c-0.096-0.025-0.272-0.038-0.53-0.038h-1.099v1.535
	h1.11c0.367,0,0.628-0.068,0.782-0.205s0.231-0.329,0.231-0.577c0-0.18-0.046-0.333-0.136-0.461
	C320.312,278.308,320.192,278.223,320.044,278.182z M328.17,266.828v19.059h-27.233v-19.059H328.17z M321.106,274.732h2.684v-0.507
	h-2.115v-3.788h-0.568V274.732z M307.566,277.637h-0.568v1.764h-2.232v-1.764h-0.568v4.295h0.568v-2.024h2.232v2.024h0.568V277.637z
	 M308.094,274.66c0.188-0.047,0.346-0.118,0.471-0.212s0.23-0.228,0.314-0.399c0.086-0.174,0.128-0.36,0.128-0.562
	c0-0.25-0.07-0.467-0.21-0.65s-0.339-0.313-0.599-0.39c0.201-0.1,0.352-0.23,0.451-0.393s0.149-0.335,0.149-0.519
	c0-0.197-0.057-0.386-0.168-0.567c-0.113-0.18-0.269-0.313-0.467-0.4s-0.461-0.131-0.789-0.131h-1.611v4.295h1.638
	C307.675,274.732,307.905,274.708,308.094,274.66z M312.447,279.791c0-0.43-0.083-0.813-0.251-1.153
	c-0.166-0.338-0.409-0.603-0.728-0.792s-0.676-0.284-1.072-0.284c-0.605,0-1.1,0.202-1.482,0.605s-0.574,0.961-0.574,1.674
	c0,0.377,0.082,0.734,0.246,1.072s0.405,0.604,0.724,0.8s0.68,0.293,1.084,0.293c0.373,0,0.721-0.088,1.043-0.265
	s0.571-0.438,0.747-0.781S312.447,280.226,312.447,279.791z M312.881,274.048c0.086-0.174,0.128-0.36,0.128-0.562
	c0-0.25-0.07-0.467-0.21-0.65s-0.339-0.313-0.599-0.39c0.201-0.1,0.352-0.23,0.451-0.393s0.149-0.335,0.149-0.519
	c0-0.197-0.057-0.386-0.168-0.567c-0.113-0.18-0.269-0.313-0.467-0.4s-0.461-0.131-0.789-0.131h-1.611v4.295h1.638
	c0.273,0,0.504-0.023,0.692-0.072c0.188-0.047,0.346-0.118,0.471-0.212S312.797,274.22,312.881,274.048z M317.114,279.791
	c0-0.43-0.083-0.813-0.251-1.153c-0.166-0.338-0.409-0.603-0.728-0.792s-0.676-0.284-1.072-0.284c-0.605,0-1.1,0.202-1.482,0.605
	s-0.574,0.961-0.574,1.674c0,0.377,0.082,0.734,0.246,1.072s0.405,0.604,0.724,0.8s0.68,0.293,1.084,0.293
	c0.373,0,0.721-0.088,1.043-0.265s0.571-0.438,0.747-0.781S317.114,280.226,317.114,279.791z M317.339,274.732l-1.758-4.295h-0.612
	l-1.649,4.295h0.604l0.472-1.301h1.796l0.501,1.301H317.339z M317.77,274.732h2.684v-0.507h-2.115v-3.788h-0.568V274.732z
	 M321.125,278.879c0-0.213-0.044-0.408-0.13-0.586c-0.088-0.178-0.202-0.315-0.345-0.414s-0.319-0.166-0.53-0.201
	c-0.15-0.027-0.368-0.041-0.653-0.041h-1.62v4.295h0.568v-1.746h1.102c0.607,0,1.027-0.126,1.26-0.379
	S321.125,279.245,321.125,278.879z M325.074,280.719c0-0.23-0.06-0.434-0.179-0.611c-0.119-0.176-0.304-0.322-0.554-0.438
	c-0.172-0.078-0.489-0.169-0.95-0.273c-0.463-0.104-0.748-0.207-0.857-0.307c-0.111-0.1-0.167-0.227-0.167-0.381
	c0-0.178,0.078-0.33,0.235-0.455c0.157-0.127,0.408-0.189,0.752-0.189c0.33,0,0.579,0.069,0.748,0.208s0.269,0.344,0.298,0.615
	l0.545-0.041c-0.01-0.252-0.08-0.478-0.211-0.677s-0.317-0.35-0.562-0.453c-0.242-0.102-0.523-0.153-0.842-0.153
	c-0.289,0-0.552,0.049-0.788,0.146s-0.416,0.241-0.539,0.429c-0.123,0.189-0.185,0.392-0.185,0.608c0,0.197,0.05,0.376,0.15,0.534
	c0.101,0.16,0.254,0.293,0.459,0.4c0.158,0.084,0.435,0.174,0.829,0.268c0.395,0.096,0.649,0.165,0.765,0.21
	c0.18,0.068,0.309,0.153,0.387,0.253c0.078,0.102,0.117,0.219,0.117,0.354c0,0.133-0.041,0.256-0.121,0.367
	c-0.082,0.113-0.205,0.201-0.371,0.266s-0.357,0.097-0.574,0.097c-0.244,0-0.464-0.042-0.659-0.128
	c-0.195-0.084-0.34-0.195-0.433-0.334c-0.093-0.137-0.151-0.313-0.177-0.528l-0.536,0.047c0.008,0.287,0.086,0.545,0.236,0.772
	c0.148,0.228,0.354,0.397,0.617,0.511s0.589,0.17,0.978,0.17c0.307,0,0.582-0.057,0.827-0.169c0.245-0.111,0.434-0.27,0.564-0.471
	C325.009,281.163,325.074,280.948,325.074,280.719z"/>
</svg>
