<?xml version="1.0" encoding="utf-8"?>
<!-- Generator: Adobe Illustrator 16.0.4, SVG Export Plug-In . SVG Version: 6.00 Build 0)  -->
<!DOCTYPE svg PUBLIC "-//W3C//DTD SVG 1.0//EN" "http://www.w3.org/TR/2001/REC-SVG-20010904/DTD/svg10.dtd">
<svg version="1.0" id="Layer_1" xmlns="http://www.w3.org/2000/svg" xmlns:xlink="http://www.w3.org/1999/xlink" x="0px" y="0px"
	 width="340px" height="276.96px" viewBox="0 0 340 276.96" enable-background="new 0 0 340 276.96" xml:space="preserve">
<g>
	<g>
		<defs>
			<rect id="SVGID_1_" width="339.84" height="276.96"/>
		</defs>
		<clipPath id="SVGID_2_">
			<use xlink:href="#SVGID_1_"  overflow="visible"/>
		</clipPath>
		<path clip-path="url(#SVGID_2_)" d="M84.57,272.859l-3.371-3.146l-0.215-86.854c-0.117-47.774-0.394-86.86-0.613-86.86
			c-0.223,0-1.871,0.93-3.668,2.063c-1.793,1.133-4.937,2.992-6.984,4.129c-5.438,3.031-7.614,4.269-16.918,9.636
			c-4.621,2.664-8.832,4.961-9.356,5.11c-0.535,0.148-9.609-14.457-20.648-33.223C3.93,51.636,3.16,50.167,4.477,48.714
			c0.753-0.832,1.711-1.516,2.125-1.516s1.707-0.668,2.875-1.484s3.742-2.383,5.722-3.48c3.649-2.024,27.297-15.645,45.602-26.266
			c5.5-3.191,13.648-7.91,18.109-10.484L87.02,0.8h41.433l1.383,2.34c2.602,4.398,11.469,10.039,19.684,12.519
			c15.519,4.684,42.347,2.297,53.527-4.765c3.578-2.254,8.152-7.266,8.152-8.922c0-1,3.086-1.172,21-1.164l21,0.012l3.602,2.085
			c1.98,1.149,4.68,2.723,6,3.504c14.824,8.735,26.008,14.914,26.363,14.559c0.238-0.238,0.438-0.082,0.438,0.352
			c0,0.433,1.527,1.628,3.398,2.66c1.871,1.031,5.922,3.375,9,5.215c3.078,1.835,7.578,4.433,10,5.769
			c6.992,3.859,13.723,7.766,17.383,10.09c1.863,1.18,3.754,2.144,4.203,2.144c0.445,0,0.812,0.418,0.812,0.93
			c0,0.508-8.676,16.16-19.281,34.781c-21.5,37.758-18.754,34.496-25.516,30.301c-1.543-0.953-5.141-3.015-8-4.574
			c-2.863-1.562-8.98-5.047-13.602-7.746l-8.398-4.906l-0.402,85.808c-0.441,94.973-0.066,88.668-5.512,92.543
			c-2.328,1.66-2.582,1.664-84.042,1.664H87.938L84.57,272.859z M112.176,104.999l0.222-9.398l10.247-0.227l10.246-0.222
			l-0.493-6.75l-10.199-0.227L112,87.952V76.046l22-0.445l0.246-3.403l0.246-3.398h-29.691v45.602h7.148L112.176,104.999z
			 M169.602,95.198V75.999H184V68.8h-36v7.199h14.398v38.403h7.204V95.198z M208.977,104.152l0.223-10.25l19.055,20.5h5.074
			c2.789,0,5.07-0.231,5.07-0.516c0-0.281-5.016-5.801-11.152-12.262L216.098,89.87l10.352-9.793
			c5.691-5.386,10.352-10.129,10.352-10.535c0-0.41-2.07-0.738-4.602-0.738l-4.598,0.008l-9.402,8.859l-9.398,8.863V68.8h-8v45.602
			h7.953L208.977,104.152z M31.973,115.698c-1.539-1.046-3.328-2.933-3.981-4.199c-0.652-1.265-3.797-6.695-6.988-12.066
			c-3.192-5.375-5.805-9.981-5.805-10.238c0-0.262-1.258-2.442-2.801-4.848c-1.539-2.41-2.796-4.524-2.796-4.695
			c0-0.176-2.161-3.981-4.801-8.454C0.406,63.753,0,62.675,0,58.382c0-2.578,0.309-4.879,0.684-5.109
			c0.375-0.235,8.543,12.976,18.148,29.351c9.606,16.379,18.152,30.946,18.996,32.375l1.531,2.602h-2.293
			C35.805,117.601,33.512,116.745,31.973,115.698L31.973,115.698z M299.199,117.124c0-0.941,37.711-66.722,38.246-66.719
			c1.18,0.016,2.555,4.497,2.555,8.317c0,4.301-1.449,7.121-19.551,38.078c-3.988,6.82-7.754,13.379-8.371,14.578
			c-1.668,3.227-6.438,6.223-9.922,6.223C300.531,117.601,299.199,117.386,299.199,117.124L299.199,117.124z M154.801,14.07
			c-9.297-2.137-15.512-5.309-20.36-10.383L131.688,0.8h4.5c3.73,0,4.589,0.262,4.988,1.527c2.172,6.844,30.957,9.535,50.289,4.703
			c3.719-0.929,7.145-3.261,7.836-5.332c0.227-0.675,1.828-0.91,5.07-0.742l4.742,0.242l-2.668,3.032
			c-6.391,7.265-15.77,10.195-34.047,10.636C163.379,15.081,158.184,14.847,154.801,14.07L154.801,14.07z"/>
	</g>
</g>
</svg>
